<svg aria-hidden="true" style="position: absolute; width: 0; height: 0; overflow: hidden;" version="1.1" xmlns="http://www.w3.org/2000/svg" xmlns:xlink="http://www.w3.org/1999/xlink">
<defs>
<symbol id="icon-menu" viewBox="0 0 32 32">
<path fill="none" stroke="#e6533c" style="stroke: var(--color1, #e6533c)" stroke-linejoin="round" stroke-linecap="round" stroke-miterlimit="4" stroke-width="2.6667" d="M4 16h16M4 8h24M4 24h24"></path>
</symbol>
<symbol id="icon-watch" viewBox="0 0 32 32">
<path fill="none" stroke="#efede8" style="stroke: var(--color2, #efede8)" stroke-linejoin="round" stroke-linecap="round" stroke-miterlimit="4" stroke-width="2" d="M16 25.334c5.155 0 9.334-4.179 9.334-9.334s-4.179-9.334-9.334-9.334v0c-5.155 0-9.334 4.179-9.334 9.334s4.179 9.334 9.334 9.334v0z"></path>
<path fill="none" stroke="#efede8" style="stroke: var(--color2, #efede8)" stroke-linejoin="round" stroke-linecap="round" stroke-miterlimit="4" stroke-width="2" d="M16 12v4l2 2M22.012 23.134l-0.466 5.106c-0.127 1.365-1.267 2.426-2.655 2.426-0.004 0-0.008 0-0.011-0h-5.773c-0.003 0-0.007 0-0.011 0-1.388 0-2.528-1.061-2.654-2.415l-0.001-0.011-0.468-5.106M9.986 8.866l0.466-5.106c0.127-1.365 1.267-2.425 2.654-2.426h5.8c0.003 0 0.007-0 0.011-0 1.388 0 2.528 1.061 2.654 2.415l0.001 0.011 0.468 5.106"></path>
</symbol>
<symbol id="icon-user" viewBox="0 0 32 32">
<path fill="#efede8" style="fill: var(--color2, #efede8)" opacity="0.1" d="M16 5.333c2.946 0 5.333 2.388 5.333 5.333s-2.388 5.333-5.333 5.333v0c-2.946 0-5.333-2.388-5.333-5.333s2.388-5.333 5.333-5.333v0zM16 26.667s10.667 0 10.667-2.667c0-3.2-5.2-6.667-10.667-6.667s-10.667 3.467-10.667 6.667c0 2.667 10.667 2.667 10.667 2.667z"></path>
</symbol>
<symbol id="icon-stop" viewBox="0 0 32 32">
<path fill="none" stroke="#efede8" style="stroke: var(--color2, #efede8)" stroke-linejoin="round" stroke-linecap="round" stroke-miterlimit="4" stroke-width="4.16" d="M5.331 28.8v-25.6M26.666 28.8v-25.6"></path>
</symbol>
<symbol id="icon-settings" viewBox="0 0 32 32">
<path fill="none" stroke="#efede8" style="stroke: var(--color2, #efede8)" stroke-linejoin="round" stroke-linecap="round" stroke-miterlimit="4" stroke-width="2.2857" d="M16 20c2.209 0 4-1.791 4-4s-1.791-4-4-4v0c-2.209 0-4 1.791-4 4s1.791 4 4 4v0z"></path>
<path fill="none" stroke="#efede8" style="stroke: var(--color2, #efede8)" stroke-linejoin="round" stroke-linecap="round" stroke-miterlimit="4" stroke-width="2.2857" d="M24.97 19.637c-0.107 0.238-0.17 0.515-0.17 0.807 0 0.544 0.217 1.038 0.57 1.399l-0-0 0.072 0.073c0.439 0.439 0.711 1.045 0.711 1.715s-0.272 1.276-0.711 1.715l-0 0c-0.439 0.439-1.045 0.711-1.715 0.711s-1.276-0.272-1.715-0.711l-0-0-0.073-0.072c-0.36-0.353-0.854-0.57-1.398-0.57-0.292 0-0.57 0.063-0.82 0.175l0.013-0.005c-0.716 0.313-1.208 1.013-1.211 1.829v0.206c0 1.339-1.086 2.425-2.425 2.425s-2.425-1.086-2.425-2.425v0-0.109c-0.021-0.838-0.553-1.546-1.296-1.825l-0.014-0.005c-0.238-0.108-0.515-0.17-0.807-0.17-0.544 0-1.038 0.218-1.399 0.571l0-0-0.073 0.072c-0.439 0.439-1.045 0.71-1.715 0.71-1.339 0-2.425-1.086-2.425-2.425 0-0.67 0.271-1.276 0.71-1.715l0.073-0.073c0.353-0.36 0.57-0.854 0.57-1.398 0-0.292-0.063-0.57-0.175-0.82l0.005 0.013c-0.313-0.716-1.014-1.208-1.83-1.211h-0.206c-1.339 0-2.425-1.086-2.425-2.425s1.086-2.425 2.425-2.425v0h0.109c0.838-0.020 1.547-0.553 1.826-1.296l0.005-0.014c0.108-0.238 0.17-0.515 0.17-0.807 0-0.544-0.218-1.038-0.571-1.399l-0.073-0.073c-0.439-0.439-0.71-1.045-0.71-1.715 0-1.34 1.086-2.426 2.426-2.426 0.67 0 1.276 0.272 1.715 0.711l0.072 0.072c0.36 0.353 0.854 0.57 1.398 0.57 0.292 0 0.57-0.063 0.82-0.175l-0.013 0.005h0.097c0.716-0.313 1.209-1.013 1.213-1.829v-0.206c0-1.339 1.085-2.424 2.424-2.424s2.424 1.085 2.424 2.424v0 0.109c0.003 0.817 0.496 1.518 1.2 1.826l0.013 0.005c0.238 0.108 0.515 0.17 0.807 0.17 0.544 0 1.038-0.218 1.399-0.571l0.073-0.073c0.439-0.439 1.045-0.71 1.715-0.71 1.339 0 2.425 1.086 2.425 2.425 0 0.67-0.271 1.276-0.71 1.715v0l-0.072 0.073c-0.353 0.36-0.57 0.854-0.57 1.398 0 0.292 0.063 0.57 0.175 0.82l-0.005-0.013v0.097c0.313 0.716 1.013 1.208 1.829 1.211h0.206c1.339 0 2.425 1.086 2.425 2.425s-1.086 2.425-2.425 2.425v0h-0.109c-0.816 0.003-1.517 0.495-1.825 1.199l-0.005 0.013z"></path>
</symbol>
<symbol id="icon-search" viewBox="0 0 32 32">
<path fill="none" stroke="#efede8" style="stroke: var(--color2, #efede8)" stroke-linejoin="round" stroke-linecap="round" stroke-miterlimit="4" stroke-width="2.6667" d="M14.667 25.333c5.891 0 10.667-4.776 10.667-10.667s-4.776-10.667-10.667-10.667v0c-5.891 0-10.667 4.776-10.667 10.667s4.776 10.667 10.667 10.667v0zM28 28l-5.801-5.799"></path>
</symbol>
<symbol id="icon-running" viewBox="0 0 32 32">
<path fill="#ef8964" style="fill: var(--color3, #ef8964)" d="M29.648 9.451c-0.219-0.26-0.545-0.424-0.909-0.424-0.29 0-0.556 0.104-0.762 0.277l0.002-0.002-3.28 2.757-1.51-3.739c-0.056-0.14-0.134-0.261-0.229-0.364l0.001 0.001c-0.321-0.716-0.875-1.281-1.563-1.608l-0.019-0.008c-0.32-0.146-0.651-0.224-0.982-0.262-0.072-0.038-0.139-0.088-0.222-0.114l-5.776-1.61c-0.093-0.026-0.199-0.041-0.31-0.041-0.223 0-0.432 0.062-0.611 0.169l0.005-0.003c-0.33 0.108-0.59 0.352-0.717 0.664l-0.003 0.008-2.174 5.592c-0.050 0.127-0.079 0.273-0.079 0.427 0 0.501 0.31 0.929 0.748 1.103l0.008 0.003c0.126 0.050 0.272 0.079 0.425 0.079 0.5 0 0.928-0.31 1.103-0.748l0.003-0.008 1.837-4.723 2.63 0.731c-0.064 0.104-0.133 0.202-0.186 0.312l-3.371 7.312c-0.048 0.107-0.075 0.216-0.11 0.326l-4.098 6.87-6.859 2.294c-0.42 0.323-0.687 0.826-0.687 1.391 0 0.968 0.784 1.752 1.752 1.752 0.381 0 0.733-0.122 1.021-0.328l-0.005 0.004 7.019-2.416c0.216-0.157 0.371-0.362 0.49-0.581 0.088-0.094 0.189-0.168 0.256-0.285l2.443-4.096 4.336 3.696-4.64 5.229c-0.273 0.307-0.439 0.714-0.439 1.16 0 0.967 0.784 1.751 1.751 1.751 0.521 0 0.99-0.228 1.31-0.589l0.002-0.002 5.79-6.523c0.179-0.202 0.288-0.432 0.36-0.675 0.043-0.133 0.043-0.269 0.053-0.406 0-0.069 0.027-0.131 0.021-0.195-0.009-0.509-0.239-0.963-0.598-1.272l-0.002-0.002-3.992-3.403c0.288-0.274 0.533-0.6 0.709-0.982l2.586-5.6 0.829 2.208c0.031 0.211 0.116 0.398 0.242 0.551l-0.002-0.002c0.121 0.138 0.273 0.247 0.445 0.314l0.008 0.003c0.018 0.008 0.038 0.010 0.059 0.016 0.096 0.040 0.208 0.069 0.325 0.080l0.005 0c0.024 0.002 0.052 0.003 0.081 0.003 0.116 0 0.227-0.017 0.332-0.050l-0.008 0.002h0.005c0.037-0.010 0.074-0.003 0.11-0.019 0.186-0.076 0.343-0.192 0.464-0.337l0.002-0.002 4.71-3.997c0.501-0.422 0.288-1.168-0.133-1.667zM23.69 6.602c1.823 0 3.301-1.478 3.301-3.301s-1.478-3.301-3.301-3.301v0c-1.823 0-3.301 1.478-3.301 3.301s1.478 3.301 3.301 3.301v0z"></path>
</symbol>
<symbol id="icon-PowerPulse" viewBox="0 0 32 32">
<path fill="#efede8" style="fill: var(--color2, #efede8)" d="M0 18.358v-4.48h1.6c0.243 0 0.463 0.061 0.659 0.182 0.389 0.242 0.643 0.668 0.643 1.152 0 0.004-0 0.009-0 0.013v-0.001c0 0.252-0.060 0.48-0.179 0.685-0.117 0.201-0.276 0.365-0.468 0.483l-0.006 0.003c-0.198 0.119-0.415 0.179-0.65 0.179h-0.819v1.782h-0.781zM0.781 15.795h0.736c0.111 0 0.212-0.028 0.304-0.083s0.164-0.13 0.218-0.224c0.055-0.094 0.083-0.198 0.083-0.314 0-0.003 0-0.006 0-0.009 0-0.113-0.031-0.22-0.085-0.311l0.002 0.003c-0.053-0.093-0.127-0.169-0.215-0.222l-0.003-0.002c-0.085-0.052-0.188-0.083-0.298-0.083-0.002 0-0.004 0-0.006 0h-0.736v1.245zM4.677 18.442c-0.294 0-0.563-0.076-0.806-0.227-0.241-0.153-0.437-0.358-0.575-0.6l-0.004-0.008c-0.135-0.239-0.215-0.525-0.215-0.829 0-0.007 0-0.013 0-0.020v0.001c0-0.235 0.042-0.453 0.125-0.656 0.083-0.205 0.197-0.384 0.342-0.538 0.142-0.151 0.312-0.274 0.502-0.361l0.010-0.004c0.18-0.083 0.39-0.131 0.612-0.131 0.003 0 0.006 0 0.009 0h-0c0.294 0 0.562 0.076 0.803 0.227 0.243 0.152 0.439 0.359 0.575 0.603l0.004 0.008c0.145 0.256 0.218 0.54 0.218 0.851 0 0.233-0.042 0.45-0.125 0.653-0.086 0.208-0.202 0.386-0.346 0.538l0.001-0.001c-0.145 0.154-0.315 0.274-0.509 0.362-0.192 0.087-0.399 0.131-0.621 0.131zM4.677 17.661c0.156 0 0.295-0.042 0.419-0.125s0.221-0.193 0.291-0.33c0.072-0.137 0.109-0.286 0.109-0.448 0-0.166-0.037-0.318-0.112-0.454-0.070-0.136-0.171-0.247-0.294-0.328l-0.003-0.002c-0.113-0.078-0.254-0.125-0.405-0.125-0.002 0-0.003 0-0.005 0h0c-0.154 0-0.292 0.042-0.416 0.125s-0.222 0.194-0.294 0.333c-0.073 0.139-0.109 0.289-0.109 0.451 0 0.169 0.037 0.321 0.112 0.458s0.174 0.245 0.298 0.326c0.126 0.079 0.262 0.118 0.41 0.118zM8.276 18.358h-0.774l-1.069-3.2h0.765l0.694 2.070 0.691-2.070h0.771l0.691 2.070 0.694-2.070h0.765l-1.069 3.2h-0.774l-0.694-2.080-0.691 2.080zM13.264 18.442c-0.294 0-0.563-0.076-0.806-0.227-0.242-0.154-0.437-0.36-0.575-0.603l-0.004-0.008c-0.135-0.239-0.214-0.525-0.214-0.829 0-0.007 0-0.013 0-0.020v0.001c0-0.233 0.042-0.45 0.125-0.653 0.083-0.205 0.197-0.384 0.342-0.538 0.147-0.156 0.318-0.277 0.512-0.365 0.18-0.083 0.39-0.131 0.612-0.131 0.003 0 0.006 0 0.009 0h-0c0.005-0 0.011-0 0.017-0 0.244 0 0.473 0.059 0.676 0.164l-0.008-0.004c0.212 0.107 0.389 0.252 0.529 0.429l0.002 0.003c0.238 0.299 0.381 0.683 0.381 1.1 0 0.093-0.007 0.184-0.021 0.273l0.001-0.010h-2.339c0.030 0.119 0.079 0.227 0.147 0.323 0.068 0.094 0.155 0.17 0.259 0.227 0.105 0.055 0.223 0.084 0.355 0.086 0.137 0.002 0.26-0.030 0.371-0.096 0.113-0.068 0.207-0.16 0.282-0.275l0.797 0.186c-0.132 0.286-0.331 0.521-0.577 0.694l-0.005 0.004c-0.258 0.179-0.547 0.269-0.867 0.269zM12.477 16.438h1.574c-0.023-0.128-0.074-0.243-0.15-0.346-0.073-0.103-0.166-0.187-0.274-0.247l-0.004-0.002c-0.102-0.058-0.224-0.093-0.355-0.093-0.001 0-0.003 0-0.004 0h0c-0.128 0-0.246 0.031-0.355 0.093-0.109 0.060-0.202 0.142-0.278 0.246-0.075 0.102-0.126 0.219-0.154 0.349zM15.366 18.358l-0.003-3.2h0.781l0.003 0.285c0.109-0.115 0.239-0.206 0.39-0.272 0.141-0.065 0.306-0.102 0.48-0.102 0.003 0 0.006 0 0.010 0h-0c0.117 0 0.235 0.017 0.352 0.051l-0.307 0.787c-0.074-0.031-0.159-0.048-0.249-0.048-0.125 0-0.243 0.035-0.343 0.095l0.003-0.002c-0.102 0.060-0.185 0.142-0.246 0.246-0.060 0.102-0.090 0.217-0.090 0.342v1.818h-0.781zM17.738 18.358v-4.48h1.6c0.243 0 0.463 0.061 0.659 0.182 0.389 0.242 0.643 0.668 0.643 1.152 0 0.004-0 0.009-0 0.013v-0.001c0 0.252-0.060 0.48-0.179 0.685-0.117 0.201-0.276 0.365-0.468 0.483l-0.006 0.003c-0.198 0.119-0.415 0.179-0.65 0.179h-0.819v1.782h-0.781zM18.518 15.795h0.736c0.111 0 0.212-0.028 0.304-0.083s0.164-0.13 0.218-0.224c0.055-0.094 0.083-0.198 0.083-0.314 0-0.003 0-0.006 0-0.009 0-0.113-0.031-0.22-0.085-0.311l0.002 0.003c-0.053-0.093-0.127-0.169-0.215-0.222l-0.003-0.002c-0.085-0.052-0.188-0.083-0.298-0.083-0.002 0-0.004 0-0.006 0h-0.736v1.245zM20.972 17.174v-2.016h0.781v1.811c0 0.126 0.031 0.241 0.093 0.346 0.062 0.102 0.144 0.185 0.246 0.246 0.105 0.060 0.219 0.090 0.342 0.090 0.128 0 0.243-0.030 0.346-0.090 0.102-0.062 0.185-0.144 0.246-0.246 0.062-0.105 0.093-0.22 0.093-0.346v-1.811h0.781l0.003 3.2h-0.781l-0.003-0.291c-0.11 0.113-0.24 0.206-0.386 0.272l-0.008 0.003c-0.151 0.066-0.314 0.099-0.486 0.099-0.004 0-0.008 0-0.013 0-0.23 0-0.445-0.063-0.63-0.173l0.006 0.003c-0.192-0.115-0.346-0.268-0.461-0.458-0.107-0.179-0.17-0.395-0.17-0.625 0-0.005 0-0.010 0-0.015v0.001zM24.563 18.358v-4.8h0.781v4.8h-0.781zM27.057 18.416c-0.176-0.011-0.341-0.047-0.495-0.103l0.012 0.004c-0.157-0.059-0.293-0.138-0.412-0.236l0.003 0.002c-0.116-0.094-0.209-0.212-0.273-0.346l-0.003-0.006 0.659-0.282c0.026 0.043 0.067 0.089 0.125 0.138 0.058 0.047 0.126 0.086 0.205 0.118 0.081 0.032 0.17 0.048 0.266 0.048 0.081 0 0.158-0.011 0.23-0.032 0.075-0.023 0.134-0.059 0.179-0.106 0.044-0.045 0.071-0.106 0.071-0.173 0-0.003-0-0.007-0-0.010v0c0-0.079-0.028-0.14-0.083-0.182-0.057-0.046-0.126-0.081-0.201-0.099l-0.003-0.001c-0.081-0.023-0.16-0.045-0.237-0.064-0.214-0.042-0.403-0.108-0.58-0.195l0.014 0.006c-0.167-0.080-0.307-0.192-0.417-0.327l-0.002-0.002c-0.105-0.137-0.157-0.301-0.157-0.493 0-0.211 0.055-0.394 0.166-0.547 0.113-0.154 0.259-0.272 0.438-0.355 0.169-0.079 0.367-0.125 0.575-0.125 0.004 0 0.007 0 0.011 0h-0.001c0.254 0 0.486 0.053 0.698 0.16 0.213 0.105 0.382 0.253 0.506 0.445l-0.618 0.365c-0.034-0.055-0.075-0.102-0.124-0.14l-0.001-0.001c-0.052-0.044-0.113-0.080-0.178-0.107l-0.005-0.002c-0.063-0.028-0.136-0.047-0.213-0.051l-0.002-0c-0.015-0.001-0.032-0.001-0.049-0.001-0.076 0-0.149 0.010-0.219 0.028l0.006-0.001c-0.079 0.021-0.143 0.058-0.192 0.109-0.047 0.051-0.070 0.119-0.070 0.205 0 0.081 0.032 0.142 0.096 0.182 0.064 0.038 0.141 0.068 0.23 0.090 0.092 0.021 0.179 0.045 0.262 0.070 0.188 0.062 0.364 0.138 0.528 0.227 0.166 0.090 0.3 0.199 0.4 0.33s0.148 0.286 0.144 0.467c0 0.207-0.062 0.388-0.186 0.544-0.124 0.154-0.284 0.271-0.48 0.352-0.15 0.064-0.325 0.101-0.509 0.101-0.041 0-0.081-0.002-0.12-0.005l0.005 0zM30.252 18.442c-0.294 0-0.563-0.076-0.806-0.227-0.48-0.305-0.794-0.834-0.794-1.436 0-0.008 0-0.016 0-0.024v0.001c0-0.233 0.042-0.45 0.125-0.653 0.083-0.205 0.197-0.384 0.342-0.538 0.142-0.151 0.312-0.274 0.502-0.361l0.010-0.004c0.18-0.083 0.39-0.131 0.612-0.131 0.003 0 0.006 0 0.009 0h-0c0.005-0 0.011-0 0.017-0 0.244 0 0.473 0.059 0.676 0.164l-0.008-0.004c0.212 0.107 0.389 0.252 0.529 0.429l0.002 0.003c0.14 0.177 0.249 0.387 0.314 0.615l0.003 0.012c0.066 0.235 0.081 0.48 0.045 0.736h-2.339c0.030 0.119 0.079 0.227 0.147 0.323 0.068 0.094 0.155 0.17 0.259 0.227 0.104 0.055 0.223 0.084 0.355 0.086 0.136 0.002 0.26-0.030 0.371-0.096 0.113-0.068 0.207-0.16 0.282-0.275l0.797 0.186c-0.132 0.286-0.331 0.521-0.577 0.694l-0.006 0.004c-0.258 0.179-0.547 0.269-0.867 0.269zM29.465 16.438h1.574c-0.024-0.128-0.074-0.243-0.15-0.346-0.073-0.103-0.166-0.187-0.274-0.247l-0.004-0.002c-0.102-0.058-0.224-0.093-0.355-0.093-0.001 0-0.003 0-0.004 0h0c-0.128 0-0.246 0.031-0.355 0.093-0.109 0.060-0.202 0.142-0.278 0.246-0.075 0.102-0.126 0.219-0.154 0.349z"></path>
</symbol>
<symbol id="icon-next" viewBox="0 0 32 32">
<path fill="none" stroke="#e6533c" style="stroke: var(--color1, #e6533c)" stroke-linejoin="round" stroke-linecap="round" stroke-miterlimit="4" stroke-width="2.4" d="M18.133 22.667l6.667-6.667M24.8 16l-6.667-6.667M24.8 16h-16"></path>
</symbol>
<symbol id="icon-play" viewBox="0 0 32 32">
<path fill="#efede8" style="fill: var(--color2, #efede8); stroke: var(--color2, #efede8)" stroke="#efede8" stroke-linejoin="round" stroke-linecap="round" stroke-miterlimit="4" stroke-width="2.9714" d="M6.667 4l18.665 12-18.665 12v-24z"></path>
</symbol>
<symbol id="icon-log-out" viewBox="0 0 32 32">
<path fill="none" stroke="#e6533c" style="stroke: var(--color1, #e6533c)" stroke-linejoin="round" stroke-linecap="round" stroke-miterlimit="4" stroke-width="2.4" d="M12 4h-1.6c-2.24 0-3.36 0-4.216 0.435-0.756 0.391-1.358 0.992-1.738 1.727l-0.011 0.022c-0.435 0.856-0.435 1.976-0.435 4.216v11.2c0 2.24 0 3.36 0.435 4.216 0.391 0.756 0.992 1.357 1.726 1.737l0.022 0.011c0.856 0.437 1.976 0.437 4.216 0.437h1.6M21.333 22.667l6.667-6.667M28 16l-6.667-6.667M28 16h-16"></path>
</symbol>
<symbol id="icon-logo" viewBox="0 0 32 32">
<path fill="#e6533c" style="fill: var(--color1, #e6533c)" d="M31.273 15.117c0.402 0 0.727 0.326 0.727 0.727v0 0.311c0 0.402-0.326 0.727-0.727 0.727v0h-0.831c-0.402 0-0.727 0.326-0.727 0.727v0 2.078c0 0.402-0.326 0.727-0.727 0.727v0h-0.831c-0.402 0-0.727 0.326-0.727 0.727v0 0.312c0 0.402-0.326 0.727-0.727 0.727v0h-1.974c-0.402 0-0.727-0.326-0.727-0.727v0-3.844c0-0.402-0.326-0.727-0.727-0.727v0h-14.545c-0.402 0-0.727 0.326-0.727 0.727v0 3.844c0 0.402-0.326 0.727-0.727 0.727v0h-1.974c-0.402 0-0.727-0.326-0.727-0.727v0-0.312c0-0.402-0.326-0.727-0.727-0.727v0h-0.831c-0.402 0-0.727-0.326-0.727-0.727v0-2.078c0-0.402-0.326-0.727-0.727-0.727v0h-0.831c-0.402 0-0.727-0.326-0.727-0.727v0-0.311c0-0.402 0.326-0.727 0.727-0.727v0h0.831c0.402 0 0.727-0.326 0.727-0.727v0-2.078c0-0.402 0.326-0.727 0.727-0.727v0h0.831c0.402 0 0.727-0.326 0.727-0.727v0-0.312c0-0.402 0.326-0.727 0.727-0.727v0h1.974c0.402 0 0.727 0.326 0.727 0.727v0 3.844c0 0.402 0.326 0.727 0.727 0.727v0h14.545c0.402 0 0.727-0.326 0.727-0.727v0-3.844c0-0.402 0.326-0.727 0.727-0.727v0h1.974c0.402 0 0.727 0.326 0.727 0.727v0 0.312c0 0.402 0.326 0.727 0.727 0.727v0h0.831c0.402 0 0.727 0.326 0.727 0.727v0 2.078c0 0.402 0.326 0.727 0.727 0.727v0h0.831z"></path>
</symbol>
<symbol id="icon-food" viewBox="0 0 32 32">
<path fill="#ef8964" style="fill: var(--color3, #ef8964)" d="M24 4c0.682 0 1.244 0.511 1.324 1.171l0.001 0.006 0.008 0.155v21.334c-0.015 0.725-0.607 1.307-1.334 1.307-0.673 0-1.229-0.498-1.321-1.145l-0.001-0.007-0.010-0.155v-6.667h-1.334c-0.681-0-1.243-0.512-1.323-1.171l-0.001-0.006-0.010-0.155v-8c0-2.947 2-6.667 4-6.667zM16 4c0.682 0 1.244 0.511 1.324 1.171l0.001 0.006 0.008 0.155v6.667c-0.001 2.472-1.682 4.551-3.963 5.156l-0.037 0.008v9.502c-0.002 0.734-0.598 1.328-1.333 1.328-0.68 0-1.241-0.509-1.323-1.167l-0.001-0.006-0.010-0.155v-9.502c-2.23-0.59-3.869-2.532-3.995-4.876l-0.001-0.013-0.005-0.275v-6.667c0.003-0.734 0.598-1.328 1.333-1.328 0.68 0 1.241 0.509 1.323 1.167l0.001 0.006 0.010 0.155v6.667c0.001 0.982 0.531 1.839 1.322 2.302l0.013 0.007v-8.976c0.002-0.734 0.598-1.328 1.333-1.328 0.68 0 1.241 0.509 1.323 1.167l0.001 0.006 0.010 0.155 0.002 8.976c0.738-0.432 1.245-1.191 1.322-2.073l0.001-0.010 0.010-0.226v-6.667c0-0.736 0.597-1.333 1.333-1.333v0z"></path>
</symbol>
<symbol id="icon-eye" viewBox="0 0 32 32">
<path fill="none" stroke="#efede8" style="stroke: var(--color2, #efede8)" stroke-linejoin="round" stroke-linecap="round" stroke-miterlimit="4" stroke-width="2.88" d="M1.333 16s5.334-10.667 14.667-10.667 14.667 10.667 14.667 10.667-5.334 10.667-14.667 10.667-14.667-10.667-14.667-10.667z"></path>
<path fill="none" stroke="#efede8" style="stroke: var(--color2, #efede8)" stroke-linejoin="round" stroke-linecap="round" stroke-miterlimit="4" stroke-width="2.88" d="M16 20c2.209 0 4-1.791 4-4s-1.791-4-4-4v0c-2.209 0-4 1.791-4 4s1.791 4 4 4v0z"></path>
</symbol>
<symbol id="icon-eye-off" viewBox="0 0 32 32">
<path fill="none" stroke="#efede8" style="stroke: var(--color2, #efede8)" stroke-linejoin="round" stroke-linecap="round" stroke-miterlimit="4" stroke-width="2.88" d="M23.92 23.92c-2.175 1.672-4.923 2.696-7.908 2.747l-0.012 0c-9.333 0-14.667-10.667-14.667-10.667 1.713-3.152 3.978-5.791 6.689-7.877l0.058-0.043M13.2 5.653c0.833-0.203 1.788-0.32 2.771-0.32 0.010 0 0.020 0 0.030 0h-0.002c9.333 0 14.667 10.667 14.667 10.667-0.872 1.615-1.827 3.008-2.91 4.289l0.030-0.036M18.827 18.827c-0.731 0.774-1.764 1.256-2.91 1.256-2.209 0-4-1.791-4-4 0-1.146 0.482-2.179 1.254-2.909l0.002-0.002M1.333 1.333l29.334 29.334"></path>
</symbol>
<symbol id="icon-dumbbell" viewBox="0 0 32 32">
<path fill="#ef8964" style="fill: var(--color3, #ef8964)" d="M5.2 8h-2.4c-0.001 0-0.002 0-0.003 0-0.661 0-1.197 0.536-1.197 1.197 0 0.001 0 0.002 0 0.003v-0 5.2h-1.2c-0.221 0-0.4 0.179-0.4 0.4v0 2.4c0 0.219 0.181 0.4 0.4 0.4h1.2v5.2c0 0.666 0.534 1.2 1.2 1.2h2.4c0.666 0 1.2-0.534 1.2-1.2v-13.6c0-0.001 0-0.002 0-0.003 0-0.661-0.536-1.197-1.197-1.197-0.001 0-0.002 0-0.003 0h0zM31.6 14.4h-1.2v-5.2c0-0.001 0-0.002 0-0.003 0-0.661-0.536-1.197-1.197-1.197-0.001 0-0.002 0-0.003 0h-2.4c-0.001 0-0.002 0-0.003 0-0.661 0-1.197 0.536-1.197 1.197 0 0.001 0 0.002 0 0.003v-0 13.6c0 0.666 0.534 1.2 1.2 1.2h2.4c0.666 0 1.2-0.534 1.2-1.2v-5.2h1.2c0.221 0 0.4-0.179 0.4-0.4v0-2.4c0-0.221-0.179-0.4-0.4-0.4v0zM22.8 4.8h-2.4c-0.001 0-0.002 0-0.003 0-0.661 0-1.197 0.536-1.197 1.197 0 0.001 0 0.002 0 0.003v-0 8.4h-6.4v-8.4c0-0.001 0-0.002 0-0.003 0-0.661-0.536-1.197-1.197-1.197-0.001 0-0.002 0-0.003 0h-2.4c-0.001 0-0.002 0-0.003 0-0.661 0-1.197 0.536-1.197 1.197 0 0.001 0 0.002 0 0.003v-0 20c0 0.666 0.534 1.2 1.2 1.2h2.4c0.666 0 1.2-0.534 1.2-1.2v-8.4h6.4v8.4c0 0.666 0.534 1.2 1.2 1.2h2.4c0.666 0 1.2-0.534 1.2-1.2v-20c0-0.001 0-0.002 0-0.003 0-0.661-0.536-1.197-1.197-1.197-0.001 0-0.002 0-0.003 0h0z"></path>
</symbol>
<symbol id="icon-chevron-down" viewBox="0 0 32 32">
<path fill="none" stroke="#efede8" style="stroke: var(--color2, #efede8)" stroke-linejoin="round" stroke-linecap="round" stroke-miterlimit="4" stroke-width="3.5556" d="M8 12l8 8 8-8"></path>
</symbol>
<symbol id="icon-close" viewBox="0 0 32 32">
<path fill="none" stroke="#efede8" style="stroke: var(--color2, #efede8)" stroke-linejoin="round" stroke-linecap="round" stroke-miterlimit="4" stroke-width="2.4615" d="M24 8l-16 16M8 8l16 16"></path>
</symbol>
<symbol id="icon-checkbox-success" viewBox="0 0 32 32">
<path fill="#3cbf61" style="fill: var(--color4, #3cbf61)" d="M16 29.334c-7.364 0-13.333-5.969-13.333-13.333s5.969-13.333 13.333-13.333v0c7.364 0 13.333 5.969 13.333 13.333s-5.969 13.333-13.333 13.333v0zM14.46 21.98l9.426-9.428-1.886-1.886-7.54 7.544-3.776-3.772-1.884 1.884 5.656 5.658z"></path>
</symbol>
<symbol id="icon-checkbox-error" viewBox="0 0 32 32">
<path fill="#d80027" style="fill: var(--color5, #d80027)" d="M16 29.334c-7.364 0-13.333-5.969-13.333-13.333s5.969-13.333 13.333-13.333v0c7.364 0 13.333 5.969 13.333 13.333s-5.969 13.333-13.333 13.333v0zM14.46 21.98l9.426-9.428-1.886-1.886-7.54 7.544-3.776-3.772-1.884 1.884 5.656 5.658z"></path>
</symbol>
<symbol id="icon-calories" viewBox="0 0 32 32">
<path fill="#ef8964" style="fill: var(--color3, #ef8964)" d="M16 22.291c-0.944 0.72-2.896 2.501-2.896 4.925 0 1.602 1.299 2.904 2.896 2.904s2.896-1.302 2.896-2.904c0-2.296-1.952-4.16-2.896-4.925z"></path>
<path fill="#ef8964" style="fill: var(--color3, #ef8964)" d="M22.789 5.57c-0.172-0.194-0.422-0.316-0.701-0.316-0.247 0-0.472 0.096-0.639 0.252l0.001-0-4.413 4.117v-8.624c0-0.72-0.869-1.259-1.52-0.864-0.125 0.074-3.058 1.862-6.021 5.114-3.6 3.952-6.054 8.765-6.054 14.163 0.002 6.942 5.634 12.589 12.558 12.589-2.637-0.007-4.771-2.146-4.771-4.784 0 0 0 0 0-0v0c0-4.261 4.138-6.784 4.314-6.891 0.137-0.083 0.303-0.132 0.48-0.132 0.192 0 0.37 0.058 0.519 0.157l-0.003-0.002c0.173 0.114 4.234 2.838 4.234 6.869 0 0 0 0 0 0 0 2.638-2.135 4.777-4.77 4.784h-0.001c6.923 0 12.557-5.648 12.557-12.587 0-5.242-2.312-9.938-5.768-13.843z"></path>
</symbol>
<symbol id="icon-calendar" viewBox="0 0 32 32">
<path fill="none" stroke-linejoin="round" stroke-linecap="round" stroke-miterlimit="4" stroke-width="2.6667" d="M25.333 5.333h-18.667c-1.473 0-2.667 1.194-2.667 2.667v0 18.667c0 1.473 1.194 2.667 2.667 2.667v0h18.667c1.473 0 2.667-1.194 2.667-2.667v0-18.667c0-1.473-1.194-2.667-2.667-2.667v0zM21.333 2.667v5.333M10.667 2.667v5.333M4 13.333h24"></path>
</symbol>
<symbol id="icon-bubble" viewBox="0 0 32 32">
<path fill="#ef8964" style="fill: var(--color3, #ef8964)" d="M20.794 16.346c3.778 0 6.84-3.062 6.84-6.84s-3.062-6.84-6.84-6.84v0c-3.778 0-6.84 3.062-6.84 6.84s3.062 6.84 6.84 6.84v0zM8.475 25.92c2.268 0 4.107-1.839 4.107-4.107s-1.839-4.107-4.107-4.107v0c-2.233 0.045-4.026 1.867-4.026 4.106s1.793 4.061 4.022 4.106l0.004 0zM22.15 29.333c1.885 0 3.414-1.528 3.414-3.414s-1.528-3.414-3.414-3.414v0c-1.885 0-3.414 1.528-3.414 3.414s1.528 3.414 3.414 3.414v0z"></path>
</symbol>
<symbol id="icon-back" viewBox="0 0 32 32">
<path fill="none" stroke="#e6533c" style="stroke: var(--color1, #e6533c)" stroke-linejoin="round" stroke-linecap="round" stroke-miterlimit="4" stroke-width="2.4" d="M13.867 22.667l-6.667-6.667M7.2 16l6.667-6.667M7.2 16h16"></path>
</symbol>
<symbol id="icon-apple" viewBox="0 0 32 32">
<path fill="#ef8964" style="fill: var(--color3, #ef8964)" d="M19.454 4.758c0.32-0.109 0.546-0.407 0.546-0.758 0-0.442-0.358-0.8-0.8-0.8-0.091 0-0.178 0.015-0.259 0.043l0.006-0.002c-1.501 0.499-2.435 1.731-2.986 3.051-0.054 0.121-0.123 0.301-0.185 0.483l-0.018 0.059c-0.719-1.345-1.864-2.384-3.253-2.948l-0.043-0.015c-0.699-0.286-1.51-0.452-2.36-0.452-0.065 0-0.13 0.001-0.195 0.003l0.009-0c-0.928 0.026-1.669 0.768-1.694 1.694-0.002 0.055-0.003 0.12-0.003 0.185 0 1.765 0.716 3.363 1.875 4.519l0 0 0.050 0.048c-2.738 0.608-4.793 2.908-5.026 5.724l-0.002 0.023-0.010 0.118c-0.028 0.325-0.043 0.704-0.043 1.087 0 2.387 0.615 4.63 1.695 6.58l-0.035-0.070 0.576 1.053c0.016 0.027 0.032 0.054 0.051 0.080l1.6 2.243c0.789 1.095 2.061 1.799 3.496 1.799 1.186 0 2.26-0.481 3.038-1.258l-0 0c0.132-0.132 0.314-0.214 0.516-0.214s0.384 0.082 0.516 0.214l0 0c0.777 0.778 1.852 1.259 3.038 1.259 1.436 0 2.707-0.705 3.487-1.787l0.009-0.013 1.6-2.242c0.017-0.023 0.034-0.050 0.049-0.078l0.002-0.004 0.574-1.053c1.045-1.88 1.659-4.123 1.659-6.51 0-0.382-0.016-0.761-0.047-1.136l0.003 0.049-0.008-0.118c-0.271-3.308-3.022-5.889-6.377-5.889-0.373 0-0.738 0.032-1.093 0.093l0.038-0.005-2.651 0.442c0.016-1.090 0.208-2.315 0.638-3.349 0.448-1.080 1.114-1.848 2.013-2.149h0.002zM11.054 14.358c-0.503 0.162-0.907 0.508-1.142 0.957l-0.005 0.011c-0.296 0.557-0.499 1.475-0.312 2.974 0.003 0.024 0.004 0.052 0.004 0.080 0 0.442-0.358 0.8-0.8 0.8-0.4 0-0.732-0.294-0.791-0.678l-0.001-0.004c-0.213-1.702-0.016-2.984 0.488-3.926 0.512-0.96 1.291-1.478 2.053-1.733 0.075-0.026 0.162-0.041 0.253-0.041 0.442 0 0.8 0.358 0.8 0.8 0 0.351-0.227 0.65-0.542 0.758l-0.006 0.002z"></path>
</symbol>
<symbol id="icon-left" viewBox="0 0 32 32">
<path fill="#EFEDE8" opacity="0.2" d="M21.086 1.086l2.828 2.828-11.586 11.586 11.586 11.586-2.828 2.828-14.414-14.414 14.414-14.414z"></path>
</symbol>
<symbol id="icon-right" viewBox="0 0 32 32">
<path fill="#EFEDE8" d="M10.914 29.914l-2.828-2.828 11.586-11.586-11.586-11.586 2.828-2.828 14.414 14.414-14.414 14.414z"></path>
</symbol>
<symbol id="tabler_exclamation-mark" viewBox="0 0 32 32">
<path fill="none" stroke-linejoin="round" stroke-linecap="round" stroke-miterlimit="4" stroke-width="2.6667" d="M16 25.333v0.013M16 20v-13.333"></path>
</symbol>
</defs>
</svg>
