<svg aria-hidden="true" style="position: absolute; width: 0; height: 0; overflow: hidden;" version="1.1" xmlns="http://www.w3.org/2000/svg" xmlns:xlink="http://www.w3.org/1999/xlink">
<defs>
<symbol id="icon-menu" viewBox="0 0 32 32">
<path fill="none" stroke="#e6533c" style="stroke: var(--color1, #e6533c)" stroke-linejoin="round" stroke-linecap="round" stroke-miterlimit="4" stroke-width="2.6667" d="M4 16h16M4 8h24M4 24h24"></path>
</symbol>
<symbol id="icon-watch" viewBox="0 0 32 32">
<path fill="none" stroke="#efede8" style="stroke: var(--color2, #efede8)" stroke-linejoin="round" stroke-linecap="round" stroke-miterlimit="4" stroke-width="2" d="M16 25.334c5.155 0 9.334-4.179 9.334-9.334s-4.179-9.334-9.334-9.334v0c-5.155 0-9.334 4.179-9.334 9.334s4.179 9.334 9.334 9.334v0z"></path>
<path fill="none" stroke="#efede8" style="stroke: var(--color2, #efede8)" stroke-linejoin="round" stroke-linecap="round" stroke-miterlimit="4" stroke-width="2" d="M16 12v4l2 2M22.012 23.134l-0.466 5.106c-0.127 1.365-1.267 2.426-2.655 2.426-0.004 0-0.008 0-0.011-0h-5.773c-0.003 0-0.007 0-0.011 0-1.388 0-2.528-1.061-2.654-2.415l-0.001-0.011-0.468-5.106M9.986 8.866l0.466-5.106c0.127-1.365 1.267-2.425 2.654-2.426h5.8c0.003 0 0.007-0 0.011-0 1.388 0 2.528 1.061 2.654 2.415l0.001 0.011 0.468 5.106"></path>
</symbol>
<symbol id="icon-user" viewBox="0 0 32 32">
<path fill="#efede8" style="fill: var(--color2, #efede8)" opacity="0.1" d="M16 5.333c2.946 0 5.333 2.388 5.333 5.333s-2.388 5.333-5.333 5.333v0c-2.946 0-5.333-2.388-5.333-5.333s2.388-5.333 5.333-5.333v0zM16 26.667s10.667 0 10.667-2.667c0-3.2-5.2-6.667-10.667-6.667s-10.667 3.467-10.667 6.667c0 2.667 10.667 2.667 10.667 2.667z"></path>
</symbol>
<symbol id="icon-stop" viewBox="0 0 32 32">
<path fill="none" stroke="#efede8" style="stroke: var(--color2, #efede8)" stroke-linejoin="round" stroke-linecap="round" stroke-miterlimit="4" stroke-width="4.16" d="M5.331 28.8v-25.6M26.666 28.8v-25.6"></path>
</symbol>
<symbol id="icon-settings" viewBox="0 0 32 32">
<path fill="none" stroke="#efede8" style="stroke: var(--color2, #efede8)" stroke-linejoin="round" stroke-linecap="round" stroke-miterlimit="4" stroke-width="2.2857" d="M16 20c2.209 0 4-1.791 4-4s-1.791-4-4-4v0c-2.209 0-4 1.791-4 4s1.791 4 4 4v0z"></path>
<path fill="none" stroke="#efede8" style="stroke: var(--color2, #efede8)" stroke-linejoin="round" stroke-linecap="round" stroke-miterlimit="4" stroke-width="2.2857" d="M24.97 19.637c-0.107 0.238-0.17 0.515-0.17 0.807 0 0.544 0.217 1.038 0.57 1.399l-0-0 0.072 0.073c0.439 0.439 0.711 1.045 0.711 1.715s-0.272 1.276-0.711 1.715l-0 0c-0.439 0.439-1.045 0.711-1.715 0.711s-1.276-0.272-1.715-0.711l-0-0-0.073-0.072c-0.36-0.353-0.854-0.57-1.398-0.57-0.292 0-0.57 0.063-0.82 0.175l0.013-0.005c-0.716 0.313-1.208 1.013-1.211 1.829v0.206c0 1.339-1.086 2.425-2.425 2.425s-2.425-1.086-2.425-2.425v0-0.109c-0.021-0.838-0.553-1.546-1.296-1.825l-0.014-0.005c-0.238-0.108-0.515-0.17-0.807-0.17-0.544 0-1.038 0.218-1.399 0.571l0-0-0.073 0.072c-0.439 0.439-1.045 0.71-1.715 0.71-1.339 0-2.425-1.086-2.425-2.425 0-0.67 0.271-1.276 0.71-1.715l0.073-0.073c0.353-0.36 0.57-0.854 0.57-1.398 0-0.292-0.063-0.57-0.175-0.82l0.005 0.013c-0.313-0.716-1.014-1.208-1.83-1.211h-0.206c-1.339 0-2.425-1.086-2.425-2.425s1.086-2.425 2.425-2.425v0h0.109c0.838-0.020 1.547-0.553 1.826-1.296l0.005-0.014c0.108-0.238 0.17-0.515 0.17-0.807 0-0.544-0.218-1.038-0.571-1.399l-0.073-0.073c-0.439-0.439-0.71-1.045-0.71-1.715 0-1.34 1.086-2.426 2.426-2.426 0.67 0 1.276 0.272 1.715 0.711l0.072 0.072c0.36 0.353 0.854 0.57 1.398 0.57 0.292 0 0.57-0.063 0.82-0.175l-0.013 0.005h0.097c0.716-0.313 1.209-1.013 1.213-1.829v-0.206c0-1.339 1.085-2.424 2.424-2.424s2.424 1.085 2.424 2.424v0 0.109c0.003 0.817 0.496 1.518 1.2 1.826l0.013 0.005c0.238 0.108 0.515 0.17 0.807 0.17 0.544 0 1.038-0.218 1.399-0.571l0.073-0.073c0.439-0.439 1.045-0.71 1.715-0.71 1.339 0 2.425 1.086 2.425 2.425 0 0.67-0.271 1.276-0.71 1.715v0l-0.072 0.073c-0.353 0.36-0.57 0.854-0.57 1.398 0 0.292 0.063 0.57 0.175 0.82l-0.005-0.013v0.097c0.313 0.716 1.013 1.208 1.829 1.211h0.206c1.339 0 2.425 1.086 2.425 2.425s-1.086 2.425-2.425 2.425v0h-0.109c-0.816 0.003-1.517 0.495-1.825 1.199l-0.005 0.013z"></path>
</symbol>
<symbol id="icon-search" viewBox="0 0 32 32">
<path fill="none" stroke="#efede8" style="stroke: var(--color2, #efede8)" stroke-linejoin="round" stroke-linecap="round" stroke-miterlimit="4" stroke-width="2.6667" d="M14.667 25.333c5.891 0 10.667-4.776 10.667-10.667s-4.776-10.667-10.667-10.667v0c-5.891 0-10.667 4.776-10.667 10.667s4.776 10.667 10.667 10.667v0zM28 28l-5.801-5.799"></path>
</symbol>
<symbol id="icon-running" viewBox="0 0 32 32">
<path d="M29.648 9.451c-0.219-0.26-0.545-0.424-0.909-0.424-0.29 0-0.556 0.104-0.762 0.277l0.002-0.002-3.28 2.757-1.51-3.739c-0.056-0.14-0.134-0.261-0.229-0.364l0.001 0.001c-0.321-0.716-0.875-1.281-1.563-1.608l-0.019-0.008c-0.32-0.146-0.651-0.224-0.982-0.262-0.072-0.038-0.139-0.088-0.222-0.114l-5.776-1.61c-0.093-0.026-0.199-0.041-0.31-0.041-0.223 0-0.432 0.062-0.611 0.169l0.005-0.003c-0.33 0.108-0.59 0.352-0.717 0.664l-0.003 0.008-2.174 5.592c-0.050 0.127-0.079 0.273-0.079 0.427 0 0.501 0.31 0.929 0.748 1.103l0.008 0.003c0.126 0.050 0.272 0.079 0.425 0.079 0.5 0 0.928-0.31 1.103-0.748l0.003-0.008 1.837-4.723 2.63 0.731c-0.064 0.104-0.133 0.202-0.186 0.312l-3.371 7.312c-0.048 0.107-0.075 0.216-0.11 0.326l-4.098 6.87-6.859 2.294c-0.42 0.323-0.687 0.826-0.687 1.391 0 0.968 0.784 1.752 1.752 1.752 0.381 0 0.733-0.122 1.021-0.328l-0.005 0.004 7.019-2.416c0.216-0.157 0.371-0.362 0.49-0.581 0.088-0.094 0.189-0.168 0.256-0.285l2.443-4.096 4.336 3.696-4.64 5.229c-0.273 0.307-0.439 0.714-0.439 1.16 0 0.967 0.784 1.751 1.751 1.751 0.521 0 0.99-0.228 1.31-0.589l0.002-0.002 5.79-6.523c0.179-0.202 0.288-0.432 0.36-0.675 0.043-0.133 0.043-0.269 0.053-0.406 0-0.069 0.027-0.131 0.021-0.195-0.009-0.509-0.239-0.963-0.598-1.272l-0.002-0.002-3.992-3.403c0.288-0.274 0.533-0.6 0.709-0.982l2.586-5.6 0.829 2.208c0.031 0.211 0.116 0.398 0.242 0.551l-0.002-0.002c0.121 0.138 0.273 0.247 0.445 0.314l0.008 0.003c0.018 0.008 0.038 0.010 0.059 0.016 0.096 0.040 0.208 0.069 0.325 0.080l0.005 0c0.024 0.002 0.052 0.003 0.081 0.003 0.116 0 0.227-0.017 0.332-0.050l-0.008 0.002h0.005c0.037-0.010 0.074-0.003 0.11-0.019 0.186-0.076 0.343-0.192 0.464-0.337l0.002-0.002 4.71-3.997c0.501-0.422 0.288-1.168-0.133-1.667zM23.69 6.602c1.823 0 3.301-1.478 3.301-3.301s-1.478-3.301-3.301-3.301v0c-1.823 0-3.301 1.478-3.301 3.301s1.478 3.301 3.301 3.301v0z"></path>
</symbol>
<symbol id="icon-run" viewBox="0 0 32 32">
<path fill="#efede8" style="fill: var(--color1, #efede8)" d="M29.647 9.451c-0.419-0.501-1.166-0.567-1.667-0.149l-3.282 2.757-1.509-3.739c-0.054-0.14-0.135-0.258-0.229-0.362-0.308-0.686-0.844-1.275-1.582-1.617-0.321-0.146-0.652-0.224-0.982-0.262-0.073-0.038-0.139-0.088-0.222-0.114l-5.776-1.61c-0.324-0.088-0.65-0.031-0.917 0.125-0.317 0.107-0.589 0.338-0.719 0.672l-2.175 5.592c-0.236 0.608 0.066 1.294 0.676 1.534 0.606 0.236 1.294-0.068 1.532-0.678l1.837-4.722 2.63 0.731c-0.064 0.104-0.133 0.201-0.185 0.312l-3.372 7.309c-0.049 0.107-0.075 0.217-0.109 0.328l-4.098 6.871-6.859 2.294c-0.776 0.581-0.941 1.674-0.367 2.45 0.577 0.778 1.674 0.943 2.448 0.369l7.018-2.417c0.215-0.156 0.371-0.36 0.489-0.58 0.088-0.094 0.189-0.168 0.256-0.284l2.443-4.096 4.337 3.696-4.64 5.23c-0.639 0.721-0.575 1.832 0.149 2.469 0.723 0.643 1.83 0.575 2.473-0.149l5.791-6.524c0.18-0.201 0.288-0.433 0.36-0.676 0.043-0.132 0.043-0.269 0.054-0.406 0-0.069 0.026-0.132 0.021-0.196-0.016-0.478-0.21-0.943-0.601-1.274l-3.991-3.403c0.288-0.274 0.532-0.6 0.709-0.983l2.585-5.599 0.828 2.206c0.035 0.196 0.101 0.388 0.239 0.549 0.125 0.149 0.284 0.248 0.454 0.317 0.017 0.009 0.038 0.010 0.059 0.016 0.107 0.038 0.217 0.075 0.329 0.080 0.133 0.012 0.269-0.005 0.405-0.043 0.004-0.002 0.005-0.002 0.005-0.002 0.036-0.009 0.073-0.002 0.109-0.017 0.192-0.073 0.34-0.196 0.466-0.34l4.71-3.998c0.501-0.421 0.289-1.166-0.132-1.667z"></path>
<path fill="#efede8" style="fill: var(--color1, #efede8)" d="M23.689 6.602c1.823 0 3.301-1.478 3.301-3.301s-1.478-3.301-3.301-3.301c-1.823 0-3.301 1.478-3.301 3.301s1.478 3.301 3.301 3.301z"></path>
</symbol>
<symbol id="icon-PowerPulse" viewBox="0 0 32 32">
<path fill="#efede8" style="fill: var(--color2, #efede8)" d="M0 18.358v-4.48h1.6c0.243 0 0.463 0.061 0.659 0.182 0.389 0.242 0.643 0.668 0.643 1.152 0 0.004-0 0.009-0 0.013v-0.001c0 0.252-0.060 0.48-0.179 0.685-0.117 0.201-0.276 0.365-0.468 0.483l-0.006 0.003c-0.198 0.119-0.415 0.179-0.65 0.179h-0.819v1.782h-0.781zM0.781 15.795h0.736c0.111 0 0.212-0.028 0.304-0.083s0.164-0.13 0.218-0.224c0.055-0.094 0.083-0.198 0.083-0.314 0-0.003 0-0.006 0-0.009 0-0.113-0.031-0.22-0.085-0.311l0.002 0.003c-0.053-0.093-0.127-0.169-0.215-0.222l-0.003-0.002c-0.085-0.052-0.188-0.083-0.298-0.083-0.002 0-0.004 0-0.006 0h-0.736v1.245zM4.677 18.442c-0.294 0-0.563-0.076-0.806-0.227-0.241-0.153-0.437-0.358-0.575-0.6l-0.004-0.008c-0.135-0.239-0.215-0.525-0.215-0.829 0-0.007 0-0.013 0-0.020v0.001c0-0.235 0.042-0.453 0.125-0.656 0.083-0.205 0.197-0.384 0.342-0.538 0.142-0.151 0.312-0.274 0.502-0.361l0.010-0.004c0.18-0.083 0.39-0.131 0.612-0.131 0.003 0 0.006 0 0.009 0h-0c0.294 0 0.562 0.076 0.803 0.227 0.243 0.152 0.439 0.359 0.575 0.603l0.004 0.008c0.145 0.256 0.218 0.54 0.218 0.851 0 0.233-0.042 0.45-0.125 0.653-0.086 0.208-0.202 0.386-0.346 0.538l0.001-0.001c-0.145 0.154-0.315 0.274-0.509 0.362-0.192 0.087-0.399 0.131-0.621 0.131zM4.677 17.661c0.156 0 0.295-0.042 0.419-0.125s0.221-0.193 0.291-0.33c0.072-0.137 0.109-0.286 0.109-0.448 0-0.166-0.037-0.318-0.112-0.454-0.070-0.136-0.171-0.247-0.294-0.328l-0.003-0.002c-0.113-0.078-0.254-0.125-0.405-0.125-0.002 0-0.003 0-0.005 0h0c-0.154 0-0.292 0.042-0.416 0.125s-0.222 0.194-0.294 0.333c-0.073 0.139-0.109 0.289-0.109 0.451 0 0.169 0.037 0.321 0.112 0.458s0.174 0.245 0.298 0.326c0.126 0.079 0.262 0.118 0.41 0.118zM8.276 18.358h-0.774l-1.069-3.2h0.765l0.694 2.070 0.691-2.070h0.771l0.691 2.070 0.694-2.070h0.765l-1.069 3.2h-0.774l-0.694-2.080-0.691 2.080zM13.264 18.442c-0.294 0-0.563-0.076-0.806-0.227-0.242-0.154-0.437-0.36-0.575-0.603l-0.004-0.008c-0.135-0.239-0.214-0.525-0.214-0.829 0-0.007 0-0.013 0-0.020v0.001c0-0.233 0.042-0.45 0.125-0.653 0.083-0.205 0.197-0.384 0.342-0.538 0.147-0.156 0.318-0.277 0.512-0.365 0.18-0.083 0.39-0.131 0.612-0.131 0.003 0 0.006 0 0.009 0h-0c0.005-0 0.011-0 0.017-0 0.244 0 0.473 0.059 0.676 0.164l-0.008-0.004c0.212 0.107 0.389 0.252 0.529 0.429l0.002 0.003c0.238 0.299 0.381 0.683 0.381 1.1 0 0.093-0.007 0.184-0.021 0.273l0.001-0.010h-2.339c0.030 0.119 0.079 0.227 0.147 0.323 0.068 0.094 0.155 0.17 0.259 0.227 0.105 0.055 0.223 0.084 0.355 0.086 0.137 0.002 0.26-0.030 0.371-0.096 0.113-0.068 0.207-0.16 0.282-0.275l0.797 0.186c-0.132 0.286-0.331 0.521-0.577 0.694l-0.005 0.004c-0.258 0.179-0.547 0.269-0.867 0.269zM12.477 16.438h1.574c-0.023-0.128-0.074-0.243-0.15-0.346-0.073-0.103-0.166-0.187-0.274-0.247l-0.004-0.002c-0.102-0.058-0.224-0.093-0.355-0.093-0.001 0-0.003 0-0.004 0h0c-0.128 0-0.246 0.031-0.355 0.093-0.109 0.060-0.202 0.142-0.278 0.246-0.075 0.102-0.126 0.219-0.154 0.349zM15.366 18.358l-0.003-3.2h0.781l0.003 0.285c0.109-0.115 0.239-0.206 0.39-0.272 0.141-0.065 0.306-0.102 0.48-0.102 0.003 0 0.006 0 0.010 0h-0c0.117 0 0.235 0.017 0.352 0.051l-0.307 0.787c-0.074-0.031-0.159-0.048-0.249-0.048-0.125 0-0.243 0.035-0.343 0.095l0.003-0.002c-0.102 0.060-0.185 0.142-0.246 0.246-0.060 0.102-0.090 0.217-0.090 0.342v1.818h-0.781zM17.738 18.358v-4.48h1.6c0.243 0 0.463 0.061 0.659 0.182 0.389 0.242 0.643 0.668 0.643 1.152 0 0.004-0 0.009-0 0.013v-0.001c0 0.252-0.060 0.48-0.179 0.685-0.117 0.201-0.276 0.365-0.468 0.483l-0.006 0.003c-0.198 0.119-0.415 0.179-0.65 0.179h-0.819v1.782h-0.781zM18.518 15.795h0.736c0.111 0 0.212-0.028 0.304-0.083s0.164-0.13 0.218-0.224c0.055-0.094 0.083-0.198 0.083-0.314 0-0.003 0-0.006 0-0.009 0-0.113-0.031-0.22-0.085-0.311l0.002 0.003c-0.053-0.093-0.127-0.169-0.215-0.222l-0.003-0.002c-0.085-0.052-0.188-0.083-0.298-0.083-0.002 0-0.004 0-0.006 0h-0.736v1.245zM20.972 17.174v-2.016h0.781v1.811c0 0.126 0.031 0.241 0.093 0.346 0.062 0.102 0.144 0.185 0.246 0.246 0.105 0.060 0.219 0.090 0.342 0.090 0.128 0 0.243-0.030 0.346-0.090 0.102-0.062 0.185-0.144 0.246-0.246 0.062-0.105 0.093-0.22 0.093-0.346v-1.811h0.781l0.003 3.2h-0.781l-0.003-0.291c-0.11 0.113-0.24 0.206-0.386 0.272l-0.008 0.003c-0.151 0.066-0.314 0.099-0.486 0.099-0.004 0-0.008 0-0.013 0-0.23 0-0.445-0.063-0.63-0.173l0.006 0.003c-0.192-0.115-0.346-0.268-0.461-0.458-0.107-0.179-0.17-0.395-0.17-0.625 0-0.005 0-0.010 0-0.015v0.001zM24.563 18.358v-4.8h0.781v4.8h-0.781zM27.057 18.416c-0.176-0.011-0.341-0.047-0.495-0.103l0.012 0.004c-0.157-0.059-0.293-0.138-0.412-0.236l0.003 0.002c-0.116-0.094-0.209-0.212-0.273-0.346l-0.003-0.006 0.659-0.282c0.026 0.043 0.067 0.089 0.125 0.138 0.058 0.047 0.126 0.086 0.205 0.118 0.081 0.032 0.17 0.048 0.266 0.048 0.081 0 0.158-0.011 0.23-0.032 0.075-0.023 0.134-0.059 0.179-0.106 0.044-0.045 0.071-0.106 0.071-0.173 0-0.003-0-0.007-0-0.010v0c0-0.079-0.028-0.14-0.083-0.182-0.057-0.046-0.126-0.081-0.201-0.099l-0.003-0.001c-0.081-0.023-0.16-0.045-0.237-0.064-0.214-0.042-0.403-0.108-0.58-0.195l0.014 0.006c-0.167-0.080-0.307-0.192-0.417-0.327l-0.002-0.002c-0.105-0.137-0.157-0.301-0.157-0.493 0-0.211 0.055-0.394 0.166-0.547 0.113-0.154 0.259-0.272 0.438-0.355 0.169-0.079 0.367-0.125 0.575-0.125 0.004 0 0.007 0 0.011 0h-0.001c0.254 0 0.486 0.053 0.698 0.16 0.213 0.105 0.382 0.253 0.506 0.445l-0.618 0.365c-0.034-0.055-0.075-0.102-0.124-0.14l-0.001-0.001c-0.052-0.044-0.113-0.080-0.178-0.107l-0.005-0.002c-0.063-0.028-0.136-0.047-0.213-0.051l-0.002-0c-0.015-0.001-0.032-0.001-0.049-0.001-0.076 0-0.149 0.010-0.219 0.028l0.006-0.001c-0.079 0.021-0.143 0.058-0.192 0.109-0.047 0.051-0.070 0.119-0.070 0.205 0 0.081 0.032 0.142 0.096 0.182 0.064 0.038 0.141 0.068 0.23 0.090 0.092 0.021 0.179 0.045 0.262 0.070 0.188 0.062 0.364 0.138 0.528 0.227 0.166 0.090 0.3 0.199 0.4 0.33s0.148 0.286 0.144 0.467c0 0.207-0.062 0.388-0.186 0.544-0.124 0.154-0.284 0.271-0.48 0.352-0.15 0.064-0.325 0.101-0.509 0.101-0.041 0-0.081-0.002-0.12-0.005l0.005 0zM30.252 18.442c-0.294 0-0.563-0.076-0.806-0.227-0.48-0.305-0.794-0.834-0.794-1.436 0-0.008 0-0.016 0-0.024v0.001c0-0.233 0.042-0.45 0.125-0.653 0.083-0.205 0.197-0.384 0.342-0.538 0.142-0.151 0.312-0.274 0.502-0.361l0.010-0.004c0.18-0.083 0.39-0.131 0.612-0.131 0.003 0 0.006 0 0.009 0h-0c0.005-0 0.011-0 0.017-0 0.244 0 0.473 0.059 0.676 0.164l-0.008-0.004c0.212 0.107 0.389 0.252 0.529 0.429l0.002 0.003c0.14 0.177 0.249 0.387 0.314 0.615l0.003 0.012c0.066 0.235 0.081 0.48 0.045 0.736h-2.339c0.030 0.119 0.079 0.227 0.147 0.323 0.068 0.094 0.155 0.17 0.259 0.227 0.104 0.055 0.223 0.084 0.355 0.086 0.136 0.002 0.26-0.030 0.371-0.096 0.113-0.068 0.207-0.16 0.282-0.275l0.797 0.186c-0.132 0.286-0.331 0.521-0.577 0.694l-0.006 0.004c-0.258 0.179-0.547 0.269-0.867 0.269zM29.465 16.438h1.574c-0.024-0.128-0.074-0.243-0.15-0.346-0.073-0.103-0.166-0.187-0.274-0.247l-0.004-0.002c-0.102-0.058-0.224-0.093-0.355-0.093-0.001 0-0.003 0-0.004 0h0c-0.128 0-0.246 0.031-0.355 0.093-0.109 0.060-0.202 0.142-0.278 0.246-0.075 0.102-0.126 0.219-0.154 0.349z"></path>
</symbol>
<symbol id="icon-next" viewBox="0 0 32 32">
<path fill="none" stroke="#e6533c" style="stroke: var(--color1, #e6533c)" stroke-linejoin="round" stroke-linecap="round" stroke-miterlimit="4" stroke-width="2.4" d="M18.133 22.667l6.667-6.667M24.8 16l-6.667-6.667M24.8 16h-16"></path>
</symbol>
<symbol id="icon-play" viewBox="0 0 32 32">
<path fill="#efede8" style="fill: var(--color2, #efede8); stroke: var(--color2, #efede8)" stroke="#efede8" stroke-linejoin="round" stroke-linecap="round" stroke-miterlimit="4" stroke-width="2.9714" d="M6.667 4l18.665 12-18.665 12v-24z"></path>
</symbol>
<symbol id="icon-log-out" viewBox="0 0 32 32">
<path fill="none" stroke="#e6533c" style="stroke: var(--color1, #e6533c)" stroke-linejoin="round" stroke-linecap="round" stroke-miterlimit="4" stroke-width="2.4" d="M12 4h-1.6c-2.24 0-3.36 0-4.216 0.435-0.756 0.391-1.358 0.992-1.738 1.727l-0.011 0.022c-0.435 0.856-0.435 1.976-0.435 4.216v11.2c0 2.24 0 3.36 0.435 4.216 0.391 0.756 0.992 1.357 1.726 1.737l0.022 0.011c0.856 0.437 1.976 0.437 4.216 0.437h1.6M21.333 22.667l6.667-6.667M28 16l-6.667-6.667M28 16h-16"></path>
</symbol>
<symbol id="icon-logo" viewBox="0 0 32 32">
<path fill="#e6533c" style="fill: var(--color1, #e6533c)" d="M31.273 15.117c0.402 0 0.727 0.326 0.727 0.727v0 0.311c0 0.402-0.326 0.727-0.727 0.727v0h-0.831c-0.402 0-0.727 0.326-0.727 0.727v0 2.078c0 0.402-0.326 0.727-0.727 0.727v0h-0.831c-0.402 0-0.727 0.326-0.727 0.727v0 0.312c0 0.402-0.326 0.727-0.727 0.727v0h-1.974c-0.402 0-0.727-0.326-0.727-0.727v0-3.844c0-0.402-0.326-0.727-0.727-0.727v0h-14.545c-0.402 0-0.727 0.326-0.727 0.727v0 3.844c0 0.402-0.326 0.727-0.727 0.727v0h-1.974c-0.402 0-0.727-0.326-0.727-0.727v0-0.312c0-0.402-0.326-0.727-0.727-0.727v0h-0.831c-0.402 0-0.727-0.326-0.727-0.727v0-2.078c0-0.402-0.326-0.727-0.727-0.727v0h-0.831c-0.402 0-0.727-0.326-0.727-0.727v0-0.311c0-0.402 0.326-0.727 0.727-0.727v0h0.831c0.402 0 0.727-0.326 0.727-0.727v0-2.078c0-0.402 0.326-0.727 0.727-0.727v0h0.831c0.402 0 0.727-0.326 0.727-0.727v0-0.312c0-0.402 0.326-0.727 0.727-0.727v0h1.974c0.402 0 0.727 0.326 0.727 0.727v0 3.844c0 0.402 0.326 0.727 0.727 0.727v0h14.545c0.402 0 0.727-0.326 0.727-0.727v0-3.844c0-0.402 0.326-0.727 0.727-0.727v0h1.974c0.402 0 0.727 0.326 0.727 0.727v0 0.312c0 0.402 0.326 0.727 0.727 0.727v0h0.831c0.402 0 0.727 0.326 0.727 0.727v0 2.078c0 0.402 0.326 0.727 0.727 0.727v0h0.831z"></path>
</symbol>
<symbol id="icon-food" viewBox="0 0 32 32">
<path fill="#ef8964" style="fill: var(--color3, #ef8964)" d="M24 4c0.682 0 1.244 0.511 1.324 1.171l0.001 0.006 0.008 0.155v21.334c-0.015 0.725-0.607 1.307-1.334 1.307-0.673 0-1.229-0.498-1.321-1.145l-0.001-0.007-0.010-0.155v-6.667h-1.334c-0.681-0-1.243-0.512-1.323-1.171l-0.001-0.006-0.010-0.155v-8c0-2.947 2-6.667 4-6.667zM16 4c0.682 0 1.244 0.511 1.324 1.171l0.001 0.006 0.008 0.155v6.667c-0.001 2.472-1.682 4.551-3.963 5.156l-0.037 0.008v9.502c-0.002 0.734-0.598 1.328-1.333 1.328-0.68 0-1.241-0.509-1.323-1.167l-0.001-0.006-0.010-0.155v-9.502c-2.23-0.59-3.869-2.532-3.995-4.876l-0.001-0.013-0.005-0.275v-6.667c0.003-0.734 0.598-1.328 1.333-1.328 0.68 0 1.241 0.509 1.323 1.167l0.001 0.006 0.010 0.155v6.667c0.001 0.982 0.531 1.839 1.322 2.302l0.013 0.007v-8.976c0.002-0.734 0.598-1.328 1.333-1.328 0.68 0 1.241 0.509 1.323 1.167l0.001 0.006 0.010 0.155 0.002 8.976c0.738-0.432 1.245-1.191 1.322-2.073l0.001-0.010 0.010-0.226v-6.667c0-0.736 0.597-1.333 1.333-1.333v0z"></path>
</symbol>
<symbol id="icon-eye" viewBox="0 0 32 32">
<path fill="none" stroke="#efede8" style="stroke: var(--color2, #efede8)" stroke-linejoin="round" stroke-linecap="round" stroke-miterlimit="4" stroke-width="2.88" d="M1.333 16s5.334-10.667 14.667-10.667 14.667 10.667 14.667 10.667-5.334 10.667-14.667 10.667-14.667-10.667-14.667-10.667z"></path>
<path fill="none" stroke="#efede8" style="stroke: var(--color2, #efede8)" stroke-linejoin="round" stroke-linecap="round" stroke-miterlimit="4" stroke-width="2.88" d="M16 20c2.209 0 4-1.791 4-4s-1.791-4-4-4v0c-2.209 0-4 1.791-4 4s1.791 4 4 4v0z"></path>
</symbol>
<symbol id="icon-eye-off" viewBox="0 0 32 32">
<path fill="none" stroke="#efede8" style="stroke: var(--color2, #efede8)" stroke-linejoin="round" stroke-linecap="round" stroke-miterlimit="4" stroke-width="2.88" d="M23.92 23.92c-2.175 1.672-4.923 2.696-7.908 2.747l-0.012 0c-9.333 0-14.667-10.667-14.667-10.667 1.713-3.152 3.978-5.791 6.689-7.877l0.058-0.043M13.2 5.653c0.833-0.203 1.788-0.32 2.771-0.32 0.010 0 0.020 0 0.030 0h-0.002c9.333 0 14.667 10.667 14.667 10.667-0.872 1.615-1.827 3.008-2.91 4.289l0.030-0.036M18.827 18.827c-0.731 0.774-1.764 1.256-2.91 1.256-2.209 0-4-1.791-4-4 0-1.146 0.482-2.179 1.254-2.909l0.002-0.002M1.333 1.333l29.334 29.334"></path>
</symbol>
<symbol id="icon-dumbbell" viewBox="0 0 32 32">
<path fill="#ef8964" style="fill: var(--color3, #ef8964)" d="M5.2 8h-2.4c-0.001 0-0.002 0-0.003 0-0.661 0-1.197 0.536-1.197 1.197 0 0.001 0 0.002 0 0.003v-0 5.2h-1.2c-0.221 0-0.4 0.179-0.4 0.4v0 2.4c0 0.219 0.181 0.4 0.4 0.4h1.2v5.2c0 0.666 0.534 1.2 1.2 1.2h2.4c0.666 0 1.2-0.534 1.2-1.2v-13.6c0-0.001 0-0.002 0-0.003 0-0.661-0.536-1.197-1.197-1.197-0.001 0-0.002 0-0.003 0h0zM31.6 14.4h-1.2v-5.2c0-0.001 0-0.002 0-0.003 0-0.661-0.536-1.197-1.197-1.197-0.001 0-0.002 0-0.003 0h-2.4c-0.001 0-0.002 0-0.003 0-0.661 0-1.197 0.536-1.197 1.197 0 0.001 0 0.002 0 0.003v-0 13.6c0 0.666 0.534 1.2 1.2 1.2h2.4c0.666 0 1.2-0.534 1.2-1.2v-5.2h1.2c0.221 0 0.4-0.179 0.4-0.4v0-2.4c0-0.221-0.179-0.4-0.4-0.4v0zM22.8 4.8h-2.4c-0.001 0-0.002 0-0.003 0-0.661 0-1.197 0.536-1.197 1.197 0 0.001 0 0.002 0 0.003v-0 8.4h-6.4v-8.4c0-0.001 0-0.002 0-0.003 0-0.661-0.536-1.197-1.197-1.197-0.001 0-0.002 0-0.003 0h-2.4c-0.001 0-0.002 0-0.003 0-0.661 0-1.197 0.536-1.197 1.197 0 0.001 0 0.002 0 0.003v-0 20c0 0.666 0.534 1.2 1.2 1.2h2.4c0.666 0 1.2-0.534 1.2-1.2v-8.4h6.4v8.4c0 0.666 0.534 1.2 1.2 1.2h2.4c0.666 0 1.2-0.534 1.2-1.2v-20c0-0.001 0-0.002 0-0.003 0-0.661-0.536-1.197-1.197-1.197-0.001 0-0.002 0-0.003 0h0z"></path>
</symbol>
<symbol id='icon-fork' width="20" height="20" viewBox="0 0 20 20" fill="none">
<path d="M14.9974 2.5C15.2015 2.50003 15.3985 2.57496 15.551 2.7106C15.7036 2.84623 15.801 3.03312 15.8249 3.23583L15.8307 3.33333V16.6667C15.8305 16.8791 15.7492 17.0834 15.6034 17.2378C15.4575 17.3923 15.2583 17.4852 15.0462 17.4976C14.8342 17.5101 14.6254 17.4411 14.4625 17.3048C14.2997 17.1685 14.195 16.9751 14.1699 16.7642L14.1641 16.6667V12.5H13.3307C13.1266 12.5 12.9296 12.425 12.7771 12.2894C12.6246 12.1538 12.5271 11.9669 12.5032 11.7642L12.4974 11.6667V6.66667C12.4974 4.825 13.7474 2.5 14.9974 2.5ZM9.9974 2.5C10.2015 2.50003 10.3985 2.57496 10.551 2.7106C10.7036 2.84623 10.801 3.03312 10.8249 3.23583L10.8307 3.33333V7.5C10.8306 8.23906 10.585 8.95715 10.1325 9.54148C9.68003 10.1258 9.04625 10.5433 8.33073 10.7283V16.6667C8.33049 16.8791 8.24916 17.0834 8.10336 17.2378C7.95755 17.3923 7.75827 17.4852 7.54623 17.4976C7.3342 17.5101 7.12541 17.4411 6.96254 17.3048C6.79966 17.1685 6.69498 16.9751 6.6699 16.7642L6.66406 16.6667V10.7283C5.97694 10.5507 5.3644 10.1585 4.91553 9.60876C4.46666 9.05903 4.20487 8.38043 4.16823 7.67167L4.16406 7.5V3.33333C4.1643 3.12093 4.24563 2.91664 4.39144 2.76219C4.53724 2.60775 4.73652 2.5148 4.94856 2.50236C5.16059 2.48991 5.36938 2.5589 5.53226 2.69522C5.69513 2.83155 5.79981 3.02492 5.8249 3.23583L5.83073 3.33333V7.5C5.83074 7.79255 5.90775 8.07995 6.05403 8.33331C6.20031 8.58667 6.4107 8.79706 6.66406 8.94333V3.33333C6.6643 3.12093 6.74563 2.91664 6.89144 2.76219C7.03724 2.60775 7.23652 2.5148 7.44856 2.50236C7.66059 2.48991 7.86938 2.5589 8.03226 2.69522C8.19513 2.83155 8.29981 3.02492 8.3249 3.23583L8.33073 3.33333L8.33156 8.94333C8.56412 8.80891 8.76073 8.62027 8.90467 8.39349C9.0486 8.1667 9.13559 7.90848 9.15823 7.64083L9.16406 7.5V3.33333C9.16406 3.11232 9.25186 2.90036 9.40814 2.74408C9.56442 2.5878 9.77638 2.5 9.9974 2.5Z" fill="#EF8964"/>
</symbol>

<symbol id="icon-mark"  width="24" height="24" viewBox="0 0 24 24" fill="none" >
<path d="M12 19V19.01M12 15V5" stroke="#EFEDE8" stroke-width="2" stroke-linecap="round" stroke-linejoin="round"/>
</symbol >


<symbol id='icon-addAvatar' width="24" height="24" viewBox="0 0 24 24" fill="none">
<circle cx="12" cy="12" r="12" fill="#EFA082"/>
<path d="M12 19V19.01M12 15V5" stroke="#EFEDE8" stroke-width="2" stroke-linecap="round" stroke-linejoin="round"/>
</symbol>



<symbol id="icon-chevron-down" viewBox="0 0 32 32">
<path fill="none" stroke="#efede8" style="stroke: var(--color2, #efede8)" stroke-linejoin="round" stroke-linecap="round" stroke-miterlimit="4" stroke-width="3.5556" d="M8 12l8 8 8-8"></path>
</symbol>
<symbol id="icon-close" viewBox="0 0 32 32">
<path fill="#e6533c" stroke="#e6533c" style="stroke: var(--color1, #e6533c)" stroke-linejoin="round" stroke-linecap="round" stroke-miterlimit="4" stroke-width="3.5556" d="M24 8l-16 16"></path>
<path fill="#e6533c" stroke="#e6533c" style="stroke: var(--color1, #e6533c)" stroke-linejoin="round" stroke-linecap="round" stroke-miterlimit="4" stroke-width="3.5556" d="M8 8l16 16"></path>
</symbol>
<symbol id="icon-x" viewBox="0 0 32 32">
<path fill="none" stroke="#efede8" style="stroke: var(--color1, #efede8)" stroke-linejoin="round" stroke-linecap="round" stroke-miterlimit="4" stroke-width="2" d="M24 8l-16 16M8 8l16 16"></path>
</symbol>
<symbol id="icon-checkbox-success" viewBox="0 0 32 32">
<path fill="#3cbf61" style="fill: var(--color4, #3cbf61)" d="M16 29.334c-7.364 0-13.333-5.969-13.333-13.333s5.969-13.333 13.333-13.333v0c7.364 0 13.333 5.969 13.333 13.333s-5.969 13.333-13.333 13.333v0zM14.46 21.98l9.426-9.428-1.886-1.886-7.54 7.544-3.776-3.772-1.884 1.884 5.656 5.658z"></path>
</symbol>
<symbol id="icon-checkbox-error" viewBox="0 0 32 32">
<path fill="#d80027" style="fill: var(--color5, #d80027)" d="M16 29.334c-7.364 0-13.333-5.969-13.333-13.333s5.969-13.333 13.333-13.333v0c7.364 0 13.333 5.969 13.333 13.333s-5.969 13.333-13.333 13.333v0zM14.46 21.98l9.426-9.428-1.886-1.886-7.54 7.544-3.776-3.772-1.884 1.884 5.656 5.658z"></path>
</symbol>
<symbol id="icon-calories" viewBox="0 0 32 32">
<path fill="#ef8964" style="fill: var(--color3, #ef8964)" d="M16 22.291c-0.944 0.72-2.896 2.501-2.896 4.925 0 1.602 1.299 2.904 2.896 2.904s2.896-1.302 2.896-2.904c0-2.296-1.952-4.16-2.896-4.925z"></path>
<path fill="#ef8964" style="fill: var(--color3, #ef8964)" d="M22.789 5.57c-0.172-0.194-0.422-0.316-0.701-0.316-0.247 0-0.472 0.096-0.639 0.252l0.001-0-4.413 4.117v-8.624c0-0.72-0.869-1.259-1.52-0.864-0.125 0.074-3.058 1.862-6.021 5.114-3.6 3.952-6.054 8.765-6.054 14.163 0.002 6.942 5.634 12.589 12.558 12.589-2.637-0.007-4.771-2.146-4.771-4.784 0 0 0 0 0-0v0c0-4.261 4.138-6.784 4.314-6.891 0.137-0.083 0.303-0.132 0.48-0.132 0.192 0 0.37 0.058 0.519 0.157l-0.003-0.002c0.173 0.114 4.234 2.838 4.234 6.869 0 0 0 0 0 0 0 2.638-2.135 4.777-4.77 4.784h-0.001c6.923 0 12.557-5.648 12.557-12.587 0-5.242-2.312-9.938-5.768-13.843z"></path>
</symbol>
<symbol id="icon-calendar" viewBox="0 0 32 32">
<path fill="none" stroke-linejoin="round" stroke-linecap="round" stroke-miterlimit="4" stroke-width="2.6667" d="M25.333 5.333h-18.667c-1.473 0-2.667 1.194-2.667 2.667v0 18.667c0 1.473 1.194 2.667 2.667 2.667v0h18.667c1.473 0 2.667-1.194 2.667-2.667v0-18.667c0-1.473-1.194-2.667-2.667-2.667v0zM21.333 2.667v5.333M10.667 2.667v5.333M4 13.333h24"></path>
</symbol>
<symbol id="icon-bubble" viewBox="0 0 32 32">
<path fill="#ef8964" style="fill: var(--color3, #ef8964)" d="M20.794 16.346c3.778 0 6.84-3.062 6.84-6.84s-3.062-6.84-6.84-6.84v0c-3.778 0-6.84 3.062-6.84 6.84s3.062 6.84 6.84 6.84v0zM8.475 25.92c2.268 0 4.107-1.839 4.107-4.107s-1.839-4.107-4.107-4.107v0c-2.233 0.045-4.026 1.867-4.026 4.106s1.793 4.061 4.022 4.106l0.004 0zM22.15 29.333c1.885 0 3.414-1.528 3.414-3.414s-1.528-3.414-3.414-3.414v0c-1.885 0-3.414 1.528-3.414 3.414s1.528 3.414 3.414 3.414v0z"></path>
</symbol>
<symbol id="icon-back" viewBox="0 0 32 32">
<path d="M13.867 22.667l-6.667-6.667M7.2 16l6.667-6.667M7.2 16h16"></path>
</symbol>
<symbol id="icon-apple" viewBox="0 0 32 32">
<path fill="#ef8964" style="fill: var(--color3, #ef8964)" d="M19.454 4.758c0.32-0.109 0.546-0.407 0.546-0.758 0-0.442-0.358-0.8-0.8-0.8-0.091 0-0.178 0.015-0.259 0.043l0.006-0.002c-1.501 0.499-2.435 1.731-2.986 3.051-0.054 0.121-0.123 0.301-0.185 0.483l-0.018 0.059c-0.719-1.345-1.864-2.384-3.253-2.948l-0.043-0.015c-0.699-0.286-1.51-0.452-2.36-0.452-0.065 0-0.13 0.001-0.195 0.003l0.009-0c-0.928 0.026-1.669 0.768-1.694 1.694-0.002 0.055-0.003 0.12-0.003 0.185 0 1.765 0.716 3.363 1.875 4.519l0 0 0.050 0.048c-2.738 0.608-4.793 2.908-5.026 5.724l-0.002 0.023-0.010 0.118c-0.028 0.325-0.043 0.704-0.043 1.087 0 2.387 0.615 4.63 1.695 6.58l-0.035-0.070 0.576 1.053c0.016 0.027 0.032 0.054 0.051 0.080l1.6 2.243c0.789 1.095 2.061 1.799 3.496 1.799 1.186 0 2.26-0.481 3.038-1.258l-0 0c0.132-0.132 0.314-0.214 0.516-0.214s0.384 0.082 0.516 0.214l0 0c0.777 0.778 1.852 1.259 3.038 1.259 1.436 0 2.707-0.705 3.487-1.787l0.009-0.013 1.6-2.242c0.017-0.023 0.034-0.050 0.049-0.078l0.002-0.004 0.574-1.053c1.045-1.88 1.659-4.123 1.659-6.51 0-0.382-0.016-0.761-0.047-1.136l0.003 0.049-0.008-0.118c-0.271-3.308-3.022-5.889-6.377-5.889-0.373 0-0.738 0.032-1.093 0.093l0.038-0.005-2.651 0.442c0.016-1.090 0.208-2.315 0.638-3.349 0.448-1.080 1.114-1.848 2.013-2.149h0.002zM11.054 14.358c-0.503 0.162-0.907 0.508-1.142 0.957l-0.005 0.011c-0.296 0.557-0.499 1.475-0.312 2.974 0.003 0.024 0.004 0.052 0.004 0.080 0 0.442-0.358 0.8-0.8 0.8-0.4 0-0.732-0.294-0.791-0.678l-0.001-0.004c-0.213-1.702-0.016-2.984 0.488-3.926 0.512-0.96 1.291-1.478 2.053-1.733 0.075-0.026 0.162-0.041 0.253-0.041 0.442 0 0.8 0.358 0.8 0.8 0 0.351-0.227 0.65-0.542 0.758l-0.006 0.002z"></path>
</symbol>
<symbol id="icon-left" viewBox="0 0 32 32">
<path fill="#EFEDE8" opacity="0.2" d="M21.086 1.086l2.828 2.828-11.586 11.586 11.586 11.586-2.828 2.828-14.414-14.414 14.414-14.414z"></path>
</symbol>
<symbol id="icon-right" viewBox="0 0 32 32">
<path fill="#EFEDE8" d="M10.914 29.914l-2.828-2.828 11.586-11.586-11.586-11.586 2.828-2.828 14.414 14.414-14.414 14.414z"></path>
</symbol>
<symbol id="tabler_exclamation-mark" viewBox="0 0 32 32">
<path fill="none" stroke-linejoin="round" stroke-linecap="round" stroke-miterlimit="4" stroke-width="2.6667" d="M16 25.333v0.013M16 20v-13.333"></path>
<symbol id="full-logo" viewBox="0 0 152 17">
<path fill="#EFEDE8" d="M43 7.286a1 1 0 0 1 1 1v.428a1 1 0 0 1-1 1h-1.143a1 1 0 0 0-1 1v2.857a1 1 0 0 1-1 1h-1.143a1 1 0 0 0-1 1V16a1 1 0 0 1-1 1H34a1 1 0 0 1-1-1v-5.286a1 1 0 0 0-1-1H12a1 1 0 0 0-1 1V16a1 1 0 0 1-1 1H7.286a1 1 0 0 1-1-1v-.429a1 1 0 0 0-1-1H4.143a1 1 0 0 1-1-1v-2.857a1 1 0 0 0-1-1H1a1 1 0 0 1-1-1v-.428a1 1 0 0 1 1-1h1.143a1 1 0 0 0 1-1V3.429a1 1 0 0 1 1-1h1.143a1 1 0 0 0 1-1V1a1 1 0 0 1 1-1H10a1 1 0 0 1 1 1v5.286a1 1 0 0 0 1 1h20a1 1 0 0 0 1-1V1a1 1 0 0 1 1-1h2.714a1 1 0 0 1 1 1v.429a1 1 0 0 0 1 1h1.143a1 1 0 0 1 1 1v2.857a1 1 0 0 0 1 1H43ZM52 15.87v-14h5c.76 0 1.447.19 2.06.57a4.23 4.23 0 0 1 2.01 3.64c0 .787-.187 1.5-.56 2.14a4.255 4.255 0 0 1-1.48 1.52c-.62.373-1.297.56-2.03.56h-2.56v5.57H52Zm2.44-8.01h2.3c.347 0 .663-.087.95-.26.287-.173.513-.407.68-.7.173-.293.26-.62.26-.98a1.91 1.91 0 0 0-.26-.99 1.903 1.903 0 0 0-.68-.7 1.8 1.8 0 0 0-.95-.26h-2.3v3.89ZM66.615 16.13c-.92 0-1.76-.236-2.52-.71a5.323 5.323 0 0 1-1.81-1.9 5.344 5.344 0 0 1-.67-2.65c0-.733.13-1.417.39-2.05.26-.64.616-1.2 1.07-1.68a5.02 5.02 0 0 1 1.6-1.14 4.668 4.668 0 0 1 1.94-.41c.92 0 1.757.237 2.51.71a5.189 5.189 0 0 1 1.81 1.91c.453.8.68 1.687.68 2.66 0 .727-.13 1.407-.39 2.04a5.416 5.416 0 0 1-1.08 1.68c-.453.48-.983.857-1.59 1.13-.6.273-1.247.41-1.94.41Zm0-2.44c.487 0 .923-.13 1.31-.39.386-.26.69-.603.91-1.03.227-.426.34-.893.34-1.4 0-.52-.117-.993-.35-1.42a2.672 2.672 0 0 0-.93-1.03 2.245 2.245 0 0 0-1.28-.39c-.48 0-.913.13-1.3.39s-.694.607-.92 1.04c-.227.433-.34.903-.34 1.41 0 .527.116 1.004.35 1.43.233.427.543.767.93 1.02.393.247.82.37 1.28.37ZM77.863 15.87h-2.42l-3.34-10h2.39l2.17 6.47 2.16-6.47h2.41l2.16 6.47 2.17-6.47h2.39l-3.34 10h-2.42l-2.17-6.5-2.16 6.5ZM93.45 16.13c-.92 0-1.76-.236-2.52-.71a5.298 5.298 0 0 1-1.81-1.91 5.343 5.343 0 0 1-.67-2.65c0-.726.13-1.407.39-2.04.26-.64.617-1.2 1.07-1.68.46-.487.994-.867 1.6-1.14a4.668 4.668 0 0 1 1.94-.41 4.6 4.6 0 0 1 2.14.5 4.866 4.866 0 0 1 1.66 1.35 5.554 5.554 0 0 1 1.13 4.26h-7.31c.094.373.247.71.46 1.01.214.293.484.53.81.71.327.174.697.264 1.11.27.427.007.814-.093 1.16-.3.354-.213.647-.5.88-.86l2.49.58a5.345 5.345 0 0 1-1.82 2.18c-.806.56-1.71.84-2.71.84Zm-2.46-6.26h4.92c-.073-.4-.23-.76-.47-1.08a2.636 2.636 0 0 0-.87-.78 2.263 2.263 0 0 0-1.12-.29c-.4 0-.77.097-1.11.29-.34.187-.63.443-.87.77-.233.32-.393.683-.48 1.09ZM100.018 15.87l-.01-10h2.44l.01.89c.34-.36.746-.643 1.22-.85.473-.213.983-.32 1.53-.32.366 0 .733.053 1.1.16l-.96 2.46a2.078 2.078 0 0 0-1.84.14c-.32.187-.577.443-.77.77-.187.32-.28.677-.28 1.07v5.68h-2.44ZM107.43 15.87v-14h5c.76 0 1.446.19 2.06.57a4.23 4.23 0 0 1 2.01 3.64c0 .787-.187 1.5-.56 2.14a4.258 4.258 0 0 1-1.48 1.52c-.62.373-1.297.56-2.03.56h-2.56v5.57h-2.44Zm2.44-8.01h2.3c.346 0 .663-.087.95-.26a1.91 1.91 0 0 0 .68-.7c.173-.293.26-.62.26-.98 0-.367-.087-.697-.26-.99a1.91 1.91 0 0 0-.68-.7 1.803 1.803 0 0 0-.95-.26h-2.3v3.89ZM117.538 12.17v-6.3h2.44v5.66c0 .394.096.754.29 1.08.193.32.45.577.77.77.326.187.683.28 1.07.28.4 0 .76-.093 1.08-.28.319-.193.576-.45.77-.77.193-.326.29-.686.29-1.08V5.87h2.44l.01 10h-2.441l-.009-.91c-.347.36-.757.647-1.23.86-.474.207-.98.31-1.52.31a3.851 3.851 0 0 1-1.991-.53 4.17 4.17 0 0 1-1.439-1.43 3.861 3.861 0 0 1-.53-2ZM128.758 15.87v-15h2.44v15h-2.44ZM136.552 16.05a5.525 5.525 0 0 1-1.51-.31 4.468 4.468 0 0 1-1.28-.73 3.119 3.119 0 0 1-.86-1.1l2.06-.88c.08.134.21.277.39.43.18.147.393.27.64.37.253.1.53.15.83.15.253 0 .493-.033.72-.1.233-.073.42-.183.56-.33a.774.774 0 0 0 .22-.57c0-.247-.087-.437-.26-.57a1.598 1.598 0 0 0-.64-.31c-.254-.073-.5-.14-.74-.2a7.247 7.247 0 0 1-1.77-.59 3.768 3.768 0 0 1-1.31-1.03c-.327-.427-.49-.94-.49-1.54 0-.66.173-1.23.52-1.71.353-.48.81-.85 1.37-1.11a4.33 4.33 0 0 1 1.83-.39c.793 0 1.52.167 2.18.5.666.327 1.193.79 1.58 1.39l-1.93 1.14a1.621 1.621 0 0 0-.39-.44 2.13 2.13 0 0 0-.57-.34 1.939 1.939 0 0 0-.67-.16c-.3-.013-.574.013-.82.08-.247.067-.447.18-.6.34-.147.16-.22.373-.22.64 0 .253.1.443.3.57.2.12.44.213.72.28.286.067.56.14.82.22a9.97 9.97 0 0 1 1.65.71c.52.28.936.623 1.25 1.03.313.407.463.893.45 1.46 0 .647-.194 1.214-.58 1.7-.387.48-.887.847-1.5 1.1a4.16 4.16 0 0 1-1.95.3ZM146.537 16.13c-.92 0-1.76-.236-2.52-.71a5.29 5.29 0 0 1-1.81-1.91 5.34 5.34 0 0 1-.67-2.65c0-.726.13-1.407.39-2.04.26-.64.616-1.2 1.07-1.68.46-.487.993-.867 1.6-1.14a4.665 4.665 0 0 1 1.94-.41c.78 0 1.493.167 2.14.5a4.874 4.874 0 0 1 1.66 1.35 5.564 5.564 0 0 1 1.13 4.26h-7.31c.093.373.246.71.46 1.01.213.293.483.53.81.71a2.41 2.41 0 0 0 1.11.27c.426.007.813-.093 1.16-.3.353-.213.646-.5.88-.86l2.49.58a5.352 5.352 0 0 1-1.82 2.18c-.807.56-1.71.84-2.71.84Zm-2.46-6.26h4.92c-.074-.4-.23-.76-.47-1.08a2.647 2.647 0 0 0-.87-.78 2.263 2.263 0 0 0-1.12-.29c-.4 0-.77.097-1.11.29-.34.187-.63.443-.87.77-.234.32-.394.683-.48 1.09Z"/>
</symbol>
<symbol id="full-logo-color" viewBox="0 0 286 32">
<path fill="#e6533c" style="fill: var(--color1, #e6533c)" d="M80.941 13.714c1.040 0 1.882 0.843 1.882 1.882v0.807c0 1.040-0.843 1.882-1.882 1.882h-2.151c-1.039 0-1.882 0.843-1.882 1.882v5.378c0 1.040-0.843 1.882-1.882 1.882h-2.151c-1.040 0-1.882 0.843-1.882 1.882v0.807c0 1.040-0.843 1.882-1.882 1.882h-5.109c-1.040 0-1.882-0.843-1.882-1.882v-9.95c0-1.040-0.843-1.882-1.882-1.882h-37.647c-1.040 0-1.882 0.843-1.882 1.882v9.95c0 1.040-0.843 1.882-1.882 1.882h-5.109c-1.040 0-1.882-0.843-1.882-1.882v-0.807c0-1.040-0.843-1.882-1.882-1.882h-2.151c-1.040 0-1.882-0.843-1.882-1.882v-5.378c0-1.040-0.843-1.882-1.882-1.882h-2.151c-1.040 0-1.882-0.843-1.882-1.882v-0.807c0-1.040 0.843-1.882 1.882-1.882h2.151c1.040 0 1.882-0.843 1.882-1.882v-5.378c0-1.040 0.843-1.882 1.882-1.882h2.151c1.040 0 1.882-0.843 1.882-1.882v-0.807c0-1.040 0.843-1.882 1.882-1.882h5.109c1.040 0 1.882 0.843 1.882 1.882v9.95c0 1.040 0.843 1.882 1.882 1.882h37.647c1.040 0 1.882-0.843 1.882-1.882v-9.95c0-1.040 0.843-1.882 1.882-1.882h5.109c1.040 0 1.882 0.843 1.882 1.882v0.807c0 1.040 0.843 1.882 1.882 1.882h2.151c1.040 0 1.882 0.843 1.882 1.882v5.378c0 1.040 0.843 1.882 1.882 1.882h2.151z"></path>
<path fill="#efede8" style="fill: var(--color2, #efede8)" d="M97.882 29.873v-26.353h9.412c1.431 0 2.723 0.358 3.878 1.073 1.167 0.715 2.089 1.675 2.767 2.88s1.016 2.529 1.016 3.972c0 1.481-0.351 2.824-1.054 4.028-0.69 1.192-1.619 2.146-2.786 2.861-1.167 0.703-2.441 1.054-3.821 1.054h-4.819v10.485h-4.593zM102.475 14.795h4.329c0.653 0 1.249-0.163 1.788-0.489s0.966-0.765 1.28-1.318c0.326-0.552 0.489-1.167 0.489-1.845 0-0.69-0.163-1.311-0.489-1.864-0.314-0.552-0.74-0.991-1.28-1.318s-1.136-0.489-1.788-0.489h-4.329v7.322z"></path>
<path fill="#efede8" style="fill: var(--color2, #efede8)" d="M125.393 30.362c-1.732 0-3.313-0.446-4.744-1.336-1.418-0.891-2.554-2.083-3.407-3.576-0.841-1.506-1.261-3.169-1.261-4.988 0-1.38 0.245-2.667 0.734-3.859 0.489-1.205 1.161-2.259 2.014-3.162 0.866-0.916 1.87-1.631 3.012-2.146s2.359-0.772 3.652-0.772c1.732 0 3.307 0.445 4.725 1.336 1.431 0.891 2.566 2.089 3.407 3.595 0.853 1.506 1.28 3.175 1.28 5.007 0 1.368-0.245 2.648-0.734 3.84s-1.167 2.246-2.033 3.162c-0.853 0.904-1.851 1.613-2.993 2.127-1.129 0.514-2.347 0.772-3.652 0.772zM125.393 25.769c0.916 0 1.738-0.245 2.466-0.734s1.299-1.136 1.713-1.939c0.427-0.803 0.64-1.681 0.64-2.635 0-0.979-0.219-1.87-0.659-2.673-0.427-0.816-1.010-1.462-1.751-1.939-0.728-0.489-1.531-0.734-2.409-0.734-0.904 0-1.719 0.245-2.447 0.734s-1.305 1.142-1.732 1.958c-0.427 0.816-0.64 1.7-0.64 2.654 0 0.991 0.22 1.889 0.659 2.692s1.023 1.443 1.751 1.92c0.741 0.464 1.544 0.696 2.409 0.696z"></path>
<path fill="#efede8" style="fill: var(--color2, #efede8)" d="M146.566 29.873h-4.555l-6.287-18.824h4.499l4.085 12.179 4.066-12.179h4.536l4.066 12.179 4.085-12.179h4.499l-6.287 18.824h-4.555l-4.085-12.235-4.066 12.235z"></path>
<path fill="#efede8" style="fill: var(--color2, #efede8)" d="M175.907 30.362c-1.732 0-3.313-0.446-4.744-1.336-1.418-0.891-2.554-2.089-3.407-3.595-0.841-1.506-1.261-3.169-1.261-4.988 0-1.368 0.245-2.648 0.734-3.84 0.489-1.205 1.161-2.259 2.014-3.162 0.866-0.916 1.87-1.631 3.012-2.146s2.359-0.772 3.652-0.772c1.468 0 2.811 0.314 4.028 0.941 1.23 0.615 2.271 1.462 3.125 2.541s1.474 2.309 1.864 3.689c0.389 1.38 0.477 2.824 0.264 4.329h-13.76c0.176 0.703 0.464 1.336 0.866 1.901 0.401 0.552 0.91 0.998 1.525 1.336 0.615 0.326 1.311 0.496 2.089 0.508 0.803 0.013 1.531-0.176 2.184-0.565 0.665-0.401 1.217-0.941 1.656-1.619l4.687 1.092c-0.766 1.669-1.908 3.037-3.426 4.104-1.518 1.054-3.219 1.581-5.101 1.581zM171.277 18.579h9.261c-0.138-0.753-0.433-1.431-0.885-2.033-0.439-0.615-0.985-1.104-1.638-1.468s-1.355-0.546-2.108-0.546-1.449 0.182-2.089 0.546c-0.64 0.351-1.186 0.835-1.638 1.449-0.439 0.602-0.741 1.286-0.904 2.052z"></path>
<path fill="#efede8" style="fill: var(--color2, #efede8)" d="M188.269 29.873l-0.019-18.824h4.593l0.019 1.675c0.64-0.678 1.404-1.211 2.296-1.6 0.89-0.402 1.85-0.602 2.88-0.602 0.689 0 1.38 0.1 2.071 0.301l-1.807 4.631c-0.478-0.188-0.954-0.282-1.431-0.282-0.742 0-1.419 0.182-2.033 0.546-0.602 0.351-1.086 0.834-1.449 1.449-0.352 0.602-0.527 1.274-0.527 2.014v10.692h-4.593z"></path>
<path fill="#efede8" style="fill: var(--color2, #efede8)" d="M202.221 29.873v-26.353h9.412c1.431 0 2.722 0.358 3.878 1.073 1.167 0.715 2.089 1.675 2.767 2.88s1.016 2.529 1.016 3.972c0 1.481-0.352 2.824-1.054 4.028-0.691 1.192-1.619 2.146-2.786 2.861-1.167 0.703-2.441 1.054-3.821 1.054h-4.819v10.485h-4.593zM206.814 14.795h4.329c0.651 0 1.248-0.163 1.788-0.489 0.538-0.326 0.966-0.765 1.28-1.318 0.326-0.552 0.489-1.167 0.489-1.845 0-0.69-0.164-1.311-0.489-1.864-0.314-0.552-0.742-0.991-1.28-1.318-0.54-0.326-1.137-0.489-1.788-0.489h-4.329v7.322z"></path>
<path fill="#efede8" style="fill: var(--color2, #efede8)" d="M221.248 22.908v-11.859h4.593v10.654c0 0.74 0.181 1.418 0.546 2.033 0.363 0.602 0.847 1.086 1.449 1.449 0.614 0.351 1.286 0.527 2.014 0.527 0.753 0 1.431-0.176 2.033-0.527 0.6-0.364 1.084-0.847 1.449-1.449 0.363-0.615 0.546-1.293 0.546-2.033v-10.654h4.593l0.019 18.824h-4.595l-0.017-1.713c-0.653 0.678-1.425 1.217-2.315 1.619-0.892 0.389-1.845 0.584-2.861 0.584-1.368 0-2.618-0.333-3.748-0.998-1.128-0.678-2.031-1.575-2.709-2.692-0.666-1.129-0.998-2.384-0.998-3.765z"></path>
<path fill="#efede8" style="fill: var(--color2, #efede8)" d="M242.368 29.873v-28.235h4.593v28.235h-4.593z"></path>
<path fill="#efede8" style="fill: var(--color2, #efede8)" d="M257.039 30.212c-0.979-0.063-1.928-0.257-2.842-0.584-0.904-0.339-1.707-0.797-2.409-1.374-0.704-0.577-1.242-1.267-1.619-2.071l3.878-1.656c0.151 0.251 0.395 0.521 0.734 0.809 0.339 0.276 0.74 0.508 1.205 0.696 0.476 0.188 0.998 0.282 1.562 0.282 0.476 0 0.928-0.063 1.355-0.188 0.439-0.138 0.791-0.345 1.054-0.621 0.275-0.276 0.414-0.634 0.414-1.073 0-0.464-0.164-0.822-0.489-1.073-0.314-0.264-0.715-0.458-1.205-0.584-0.478-0.138-0.941-0.264-1.393-0.376-1.193-0.238-2.304-0.609-3.332-1.111-1.016-0.502-1.839-1.148-2.466-1.939-0.616-0.803-0.922-1.769-0.922-2.899 0-1.242 0.326-2.315 0.979-3.219 0.664-0.904 1.525-1.6 2.579-2.089 1.065-0.489 2.214-0.734 3.445-0.734 1.493 0 2.861 0.314 4.104 0.941 1.254 0.615 2.246 1.487 2.974 2.616l-3.633 2.146c-0.177-0.301-0.422-0.577-0.734-0.828-0.314-0.264-0.672-0.477-1.073-0.64-0.403-0.176-0.823-0.276-1.261-0.301-0.565-0.025-1.080 0.025-1.544 0.151-0.465 0.125-0.841 0.339-1.129 0.64-0.277 0.301-0.414 0.703-0.414 1.205 0 0.477 0.188 0.834 0.565 1.073 0.376 0.226 0.828 0.402 1.355 0.527 0.538 0.125 1.054 0.264 1.544 0.414 1.103 0.364 2.138 0.809 3.106 1.336 0.979 0.527 1.762 1.173 2.353 1.939 0.589 0.766 0.872 1.681 0.847 2.748 0 1.217-0.365 2.284-1.092 3.2-0.728 0.904-1.67 1.594-2.824 2.071-1.143 0.477-2.366 0.665-3.671 0.565z"></path>
<path fill="#efede8" style="fill: var(--color2, #efede8)" d="M275.834 30.362c-1.732 0-3.313-0.446-4.744-1.336-1.419-0.891-2.554-2.089-3.407-3.595-0.841-1.506-1.261-3.169-1.261-4.988 0-1.368 0.245-2.648 0.734-3.84 0.489-1.205 1.16-2.259 2.014-3.162 0.866-0.916 1.869-1.631 3.012-2.146 1.141-0.515 2.359-0.772 3.652-0.772 1.468 0 2.81 0.314 4.028 0.941 1.229 0.615 2.27 1.462 3.125 2.541 0.853 1.079 1.474 2.309 1.864 3.689 0.388 1.38 0.476 2.824 0.264 4.329h-13.76c0.175 0.703 0.463 1.336 0.866 1.901 0.401 0.552 0.909 0.998 1.525 1.336 0.614 0.326 1.31 0.496 2.089 0.508 0.802 0.013 1.53-0.176 2.184-0.565 0.664-0.401 1.216-0.941 1.656-1.619l4.687 1.092c-0.766 1.669-1.909 3.037-3.426 4.104-1.519 1.054-3.219 1.581-5.101 1.581zM271.204 18.579h9.261c-0.139-0.753-0.433-1.431-0.885-2.033-0.44-0.615-0.986-1.104-1.638-1.468-0.653-0.364-1.355-0.546-2.108-0.546s-1.449 0.182-2.089 0.546c-0.64 0.351-1.186 0.835-1.638 1.449-0.44 0.602-0.742 1.286-0.904 2.052z"></path>
</symbol>
<symbol id="icon-log-out-white" viewBox="0 0 32 32">
<path fill="none" stroke="#efede8" style="stroke: var(--color1, #efede8)" stroke-linejoin="round" stroke-linecap="round" stroke-miterlimit="4" stroke-width="2.4" d="M12 4h-1.6c-2.24 0-3.36 0-4.216 0.436-0.753 0.383-1.365 0.995-1.748 1.748-0.436 0.856-0.436 1.976-0.436 4.216v11.2c0 2.24 0 3.36 0.436 4.216 0.383 0.753 0.995 1.364 1.748 1.748 0.856 0.436 1.976 0.436 4.216 0.436h1.6"></path>
<path fill="none" stroke="#efede8" style="stroke: var(--color1, #efede8)" stroke-linejoin="round" stroke-linecap="round" stroke-miterlimit="4" stroke-width="2.4" d="M21.333 22.667l6.667-6.667M28 16l-6.667-6.667M28 16h-16"></path>
</symbol>
<symbol id="icon-line" viewBox="0 0 87 32">
<path fill="none" stroke="#ef8964" style="stroke: var(--color1, #ef8964)" stroke-linejoin="round" stroke-linecap="round" stroke-miterlimit="4" stroke-width="0.9275" d="M61.051 0.464c-20.416 0.3-65 3.913-60.233 22.304 4.284 12.985 65.327 10.195 80.388 0.425s-5.623-19.937-34.455-16.338"></path>
<symbol id="icon-trash" viewBox="0 0 32 32">
<path fill="none" stroke="#ef8964" style="stroke: var(--color1, #ef8964)" stroke-linejoin="round" stroke-linecap="round" stroke-miterlimit="4" stroke-width="2.4" d="M12 4h8M13.333 14v6.667M18.667 14v6.667M4 8h24M25.333 8l-0.934 14.026c-0.141 2.104-0.211 3.157-0.666 3.955-0.405 0.703-0.997 1.258-1.708 1.609l-0.023 0.010c-0.826 0.4-1.88 0.4-3.989 0.4h-4.026c-2.109 0-3.163 0-3.989-0.4-0.734-0.361-1.326-0.917-1.721-1.6l-0.010-0.019c-0.454-0.8-0.525-1.851-0.666-3.955l-0.934-14.026"></path>
</symbol>
<symbol id="icon-addPhoto" width="33" height="32" viewBox="0 0 33 32" fill="none">
<path d="M11.2382 0.427845L15.9284 1.78405C16.2674 1.88208 16.6272 1.88283 16.9666 1.78621L21.7966 0.411303C22.6418 0.170715 23.5409 0.546916 23.963 1.31768L26.4694 5.89504C26.6375 6.20214 26.888 6.45626 27.1927 6.62883L31.1787 8.88671C31.9497 9.32347 32.3117 10.2389 32.0479 11.0849L30.6672 15.513C30.554 15.876 30.5534 16.2648 30.6655 16.6282L32.06 21.1493C32.3177 21.9849 31.9661 22.8879 31.2113 23.3292L26.768 25.9266C26.4649 26.1039 26.2173 26.3624 26.0534 26.673L23.9399 30.6768C23.531 31.4515 22.6418 31.8417 21.7948 31.6181L16.9314 30.3344C16.6141 30.2507 16.2804 30.2513 15.9635 30.3363L11.2488 31.6004C10.3822 31.8328 9.47213 31.4213 9.07421 30.6172L6.96789 26.3608C6.79108 26.0035 6.50542 25.7116 6.15206 25.5271L1.84775 23.2796C1.06147 22.869 0.668508 21.9652 0.904481 21.1102L2.1597 16.562C2.24855 16.24 2.25014 15.9002 2.16431 15.5775L0.876636 10.735C0.655154 9.90215 1.02762 9.02522 1.7808 8.60629L6.20271 6.1468C6.52438 5.96789 6.78654 5.69859 6.95674 5.37222L9.04628 1.36568C9.4606 0.571256 10.3774 0.178965 11.2382 0.427845Z" fill="#E6533C"/>
<path d="M16.5 10.75V21.25" stroke="#EFEDE8" stroke-width="2" stroke-linecap="round" stroke-linejoin="round"/>
<path d="M11.25 16H21.75" stroke="#EFEDE8" stroke-width="2" stroke-linecap="round" stroke-linejoin="round"/>
</symbol>
</symbol>
<symbol id="icon-runningOnCircle" width="24" height="24" viewBox="0 0 24 24" fill="none">
  <circle cx="12" cy="12" r="12" fill="#EFA082"/>
  <path d="M18.8234 8.72544C18.6138 8.47504 18.2403 8.44212 17.9899 8.65092L16.349 10.0294L15.5943 8.15967C15.5675 8.08949 15.5267 8.03057 15.4799 7.97859C15.3257 7.63549 15.058 7.34091 14.6889 7.17023C14.5286 7.09745 14.3631 7.05846 14.1977 7.0394C14.1613 7.02034 14.1283 6.99521 14.0868 6.98222L11.199 6.17732C11.037 6.13314 10.8741 6.16173 10.7407 6.2397C10.5821 6.29342 10.4461 6.40865 10.3811 6.57587L9.29378 9.37178C9.17594 9.67589 9.3267 10.019 9.63168 10.1386C9.93492 10.2564 10.2789 10.1048 10.3976 9.79978L11.316 7.43882L12.6312 7.80444C12.5991 7.85643 12.5645 7.90495 12.5385 7.9604L10.8524 11.6149C10.8282 11.6686 10.8152 11.7232 10.7979 11.7787L8.7488 15.214L5.31955 16.3611C4.9314 16.6514 4.84909 17.1981 5.13587 17.5862C5.42439 17.9752 5.97282 18.0575 6.36011 17.7708L9.86907 16.5621C9.97651 16.4841 10.0545 16.3819 10.1134 16.2719C10.1576 16.2251 10.2078 16.1878 10.2416 16.1298L11.4633 14.0816L13.6319 15.9296L11.3116 18.5445C10.9919 18.9049 11.024 19.4603 11.3862 19.7791C11.7474 20.1005 12.3011 20.0667 12.6225 19.7046L15.5181 16.4426C15.6082 16.342 15.6619 16.2259 15.6983 16.1047C15.7199 16.0388 15.7199 15.9704 15.7251 15.9019C15.7251 15.8673 15.7381 15.8361 15.7355 15.804C15.7277 15.5649 15.6307 15.3327 15.4349 15.1672L13.4395 13.4656C13.5834 13.3287 13.7055 13.1658 13.7939 12.9743L15.0866 10.1749L15.5007 11.2779C15.5181 11.3758 15.551 11.472 15.6203 11.5525C15.6827 11.627 15.7624 11.6764 15.8473 11.7111C15.856 11.7154 15.8664 11.7163 15.8768 11.7189C15.9305 11.7379 15.9851 11.7561 16.0414 11.7587C16.1081 11.7648 16.1757 11.7561 16.2441 11.7371C16.2459 11.7362 16.2467 11.7362 16.2467 11.7362C16.2649 11.7319 16.2831 11.7353 16.3013 11.7275C16.3975 11.6912 16.4711 11.6296 16.5344 11.5577L18.8893 9.55892C19.1397 9.34838 19.034 8.97583 18.8234 8.72544Z" fill="#EFEDE8"/>
  <path d="M15.8458 7.30102C16.7574 7.30102 17.4963 6.56206 17.4963 5.65051C17.4963 4.73896 16.7574 4 15.8458 4C14.9343 4 14.1953 4.73896 14.1953 5.65051C14.1953 6.56206 14.9343 7.30102 15.8458 7.30102Z" fill="#EFEDE8"/>
</symbol>

<symbol id="icon-arrow-right" width="16" height="16" viewBox="0 0 16 16" fill="none">
<path d="M7.5 14L14 7.5M14 7.5L7.5 1M14 7.5H1"  stroke-width="1.3" stroke-linecap="round" stroke-linejoin="round"/>
</symbol>
<symbol id="icon-arrow" viewBox="0 0 32 32">
<path fill="none" stroke="#e6533c" style="stroke: var(--color1, #e6533c)" stroke-linejoin="round" stroke-linecap="round" stroke-miterlimit="4" stroke-width="2.6" d="M15 28l13-13M28 15l-13-13M28 15h-26"></path>
</symbol>

</defs>
</svg>
