<svg xmlns="http://www.w3.org/2000/svg" width="24" height="24" fill="none"><circle cx="12" cy="12" r="12" fill="#EFA082"/><path fill="#EFEDE8" d="M18.823 8.725a.593.593 0 0 0-.833-.074l-1.641 1.378-.755-1.87a.58.58 0 0 0-.114-.18 1.606 1.606 0 0 0-.791-.809 1.628 1.628 0 0 0-.491-.13c-.037-.02-.07-.045-.111-.058l-2.888-.805a.594.594 0 0 0-.458.063.578.578 0 0 0-.36.336L9.294 9.372a.594.594 0 0 0 .338.767.593.593 0 0 0 .766-.34l.918-2.36 1.315.365c-.032.052-.066.1-.092.156l-1.687 3.655c-.024.054-.037.108-.054.164l-2.05 3.435L5.32 16.36a.876.876 0 0 0 1.04 1.41l3.51-1.209a.842.842 0 0 0 .243-.29c.045-.047.095-.084.129-.142l1.221-2.048 2.169 1.848-2.32 2.614a.875.875 0 1 0 1.31 1.16l2.896-3.262c.09-.1.144-.216.18-.337.022-.066.022-.135.027-.203 0-.035.013-.066.01-.098a.858.858 0 0 0-.3-.637l-1.995-1.701c.143-.137.266-.3.354-.492l1.293-2.8.414 1.104a.56.56 0 0 0 .12.274.569.569 0 0 0 .226.159c.009.004.02.005.03.008.053.019.108.037.164.04a.564.564 0 0 0 .203-.022h.003c.018-.005.036-.002.054-.01a.586.586 0 0 0 .233-.17L18.89 9.56c.25-.21.145-.583-.066-.834ZM15.846 7.301a1.65 1.65 0 1 0 0-3.3 1.65 1.65 0 0 0 0 3.3Z"/></svg>