<svg aria-hidden="true" style="position: absolute; width: 0; height: 0; overflow: hidden;" version="1.1" xmlns="http://www.w3.org/2000/svg" xmlns:xlink="http://www.w3.org/1999/xlink">
<defs>
<symbol id="icon-icon" viewBox="0 0 32 32">
<path fill="#efa082" style="fill: var(--color1, #efa082)" d="M32 16c0 8.837-7.163 16-16 16s-16-7.163-16-16c0-8.837 7.163-16 16-16s16 7.163 16 16z"></path>
<path fill="#efede8" style="fill: var(--color2, #efede8)" d="M25.097 11.633c-0.146-0.173-0.363-0.282-0.605-0.282-0.193 0-0.37 0.069-0.507 0.184l0.001-0.001-2.188 1.837-1.007-2.493c-0.038-0.093-0.089-0.172-0.152-0.24l0 0c-0.214-0.478-0.583-0.855-1.042-1.073l-0.013-0.006c-0.191-0.087-0.413-0.148-0.645-0.173l-0.009-0.001c-0.049-0.027-0.093-0.060-0.148-0.077l-3.851-1.073c-0.062-0.017-0.133-0.027-0.206-0.027-0.149 0-0.289 0.041-0.408 0.113l0.004-0.002c-0.22 0.072-0.393 0.235-0.478 0.443l-0.002 0.005-1.449 3.728c-0.034 0.085-0.053 0.182-0.053 0.285 0 0.334 0.206 0.619 0.498 0.736l0.005 0.002c0.084 0.033 0.182 0.053 0.284 0.053 0.334 0 0.62-0.207 0.736-0.501l0.002-0.005 1.224-3.147 1.753 0.487c-0.043 0.069-0.088 0.133-0.123 0.208l-2.249 4.873c-0.032 0.072-0.049 0.144-0.072 0.219l-2.733 4.58-4.571 1.528c-0.289 0.215-0.475 0.556-0.475 0.94 0 0.645 0.523 1.168 1.168 1.168 0.261 0 0.502-0.086 0.696-0.23l-0.003 0.002 4.68-1.612c0.135-0.103 0.244-0.232 0.321-0.38l0.003-0.006c0.060-0.063 0.127-0.112 0.172-0.189l1.628-2.731 2.892 2.464-3.093 3.485c-0.19 0.207-0.306 0.484-0.306 0.787 0 0.644 0.522 1.167 1.167 1.167 0.354 0 0.671-0.157 0.885-0.406l0.001-0.002 3.861-4.349c0.12-0.133 0.192-0.288 0.24-0.449 0.029-0.088 0.029-0.18 0.036-0.271 0-0.047 0.017-0.088 0.013-0.131-0.006-0.34-0.159-0.642-0.398-0.848l-0.002-0.001-2.66-2.268c0.191-0.183 0.355-0.4 0.472-0.656l1.724-3.733 0.552 1.472c0.021 0.14 0.078 0.265 0.161 0.367l-0.001-0.001c0.080 0.093 0.181 0.165 0.296 0.21l0.005 0.002c0.012 0.005 0.027 0.007 0.040 0.011 0.071 0.025 0.144 0.049 0.219 0.053 0.017 0.001 0.036 0.002 0.056 0.002 0.077 0 0.151-0.011 0.22-0.033l-0.005 0.001h0.004c0.024-0.007 0.048-0.003 0.072-0.013 0.124-0.051 0.229-0.128 0.31-0.225l0.001-0.001 3.141-2.661c0.333-0.28 0.193-0.777-0.088-1.112zM21.128 9.735c1.215 0 2.2-0.985 2.2-2.2s-0.985-2.2-2.2-2.2v0c-1.215 0-2.2 0.985-2.2 2.2s0.985 2.2 2.2 2.2v0z"></path>
</symbol>
</defs>
</svg>
