<svg width="41" height="42" viewBox="0 0 41 42" fill="none" xmlns="http://www.w3.org/2000/svg">
<path d="M20.5013 0.333374C23.1977 0.333374 25.7836 1.42206 27.6902 3.35994C29.5969 5.29782 30.668 7.92614 30.668 10.6667C30.668 13.4073 29.5969 16.0356 27.6902 17.9735C25.7836 19.9114 23.1977 21.0001 20.5013 21.0001C17.8049 21.0001 15.219 19.9114 13.3124 17.9735C11.4058 16.0356 10.3346 13.4073 10.3346 10.6667C10.3346 7.92614 11.4058 5.29782 13.3124 3.35994C15.219 1.42206 17.8049 0.333374 20.5013 0.333374ZM20.5013 41.6667C20.5013 41.6667 40.8347 41.6667 40.8347 36.5001C40.8347 30.3001 30.9222 23.5834 20.5013 23.5834C10.0805 23.5834 0.167969 30.3001 0.167969 36.5001C0.167969 41.6667 20.5013 41.6667 20.5013 41.6667Z" fill="#EFEDE8" fill-opacity="0.1"/>
</svg>